<?xml version="1.0" encoding="iso-8859-1"?>
<!-- Generator: Adobe Illustrator 22.0.1, SVG Export Plug-In . SVG Version: 6.00 Build 0)  -->
<svg version="1.1" id="Capa_1" xmlns="http://www.w3.org/2000/svg" xmlns:xlink="http://www.w3.org/1999/xlink" x="0px" y="0px"
	 viewBox="0 0 1024 768" style="enable-background:new 0 0 1024 768;" xml:space="preserve">
<radialGradient id="SVGID_1_" cx="375.036" cy="215.1108" r="19.0399" gradientUnits="userSpaceOnUse">
	<stop  offset="0" style="stop-color:#944A00"/>
	<stop  offset="0" style="stop-color:#A05605"/>
	<stop  offset="0" style="stop-color:#C27712"/>
	<stop  offset="0" style="stop-color:#DD911D"/>
	<stop  offset="0" style="stop-color:#F0A324"/>
	<stop  offset="0" style="stop-color:#FBAE29"/>
	<stop  offset="0" style="stop-color:#FFB22A"/>
	<stop  offset="0.2593" style="stop-color:#FFB22A"/>
	<stop  offset="1" style="stop-color:#E9AE00"/>
</radialGradient>
<path style="fill:url(#SVGID_1_);" d="M375.046,234.156c-10.522,0-19.044-8.527-19.044-19.044c0-10.52,8.523-19.047,19.044-19.047
	c10.517,0,19.024,8.527,19.024,19.047C394.07,225.629,385.563,234.156,375.046,234.156z"/>
<radialGradient id="SVGID_2_" cx="465.1796" cy="236.8509" r="19.0474" gradientUnits="userSpaceOnUse">
	<stop  offset="0" style="stop-color:#944A00"/>
	<stop  offset="0" style="stop-color:#A05605"/>
	<stop  offset="0" style="stop-color:#C27712"/>
	<stop  offset="0" style="stop-color:#DD911D"/>
	<stop  offset="0" style="stop-color:#F0A324"/>
	<stop  offset="0" style="stop-color:#FBAE29"/>
	<stop  offset="0" style="stop-color:#FFB22A"/>
	<stop  offset="0.2593" style="stop-color:#FFB22A"/>
	<stop  offset="1" style="stop-color:#E9AE00"/>
</radialGradient>
<path style="fill:url(#SVGID_2_);" d="M465.189,255.896c-10.527,0-19.059-8.527-19.059-19.044c0-10.52,8.532-19.047,19.059-19.047
	c10.497,0,19.04,8.527,19.04,19.047C484.229,247.369,475.686,255.896,465.189,255.896z"/>
<radialGradient id="SVGID_3_" cx="555.3233" cy="207.4323" r="19.0423" gradientUnits="userSpaceOnUse">
	<stop  offset="0" style="stop-color:#944A00"/>
	<stop  offset="0" style="stop-color:#A05605"/>
	<stop  offset="0" style="stop-color:#C27712"/>
	<stop  offset="0" style="stop-color:#DD911D"/>
	<stop  offset="0" style="stop-color:#F0A324"/>
	<stop  offset="0" style="stop-color:#FBAE29"/>
	<stop  offset="0" style="stop-color:#FFB22A"/>
	<stop  offset="0.2593" style="stop-color:#FFB22A"/>
	<stop  offset="1" style="stop-color:#E9AE00"/>
</radialGradient>
<path style="fill:url(#SVGID_3_);" d="M555.308,226.478c-10.487,0-19.024-8.527-19.024-19.044c0-10.52,8.537-19.047,19.024-19.047
	c10.537,0,19.054,8.527,19.054,19.047C574.362,217.951,565.846,226.478,555.308,226.478z"/>
<g>
	<linearGradient id="SVGID_4_" gradientUnits="userSpaceOnUse" x1="32.581" y1="389.3808" x2="146.0371" y2="389.3808">
		<stop  offset="0" style="stop-color:#105E90"/>
		<stop  offset="0.2354" style="stop-color:#125F91"/>
		<stop  offset="0.3202" style="stop-color:#196395"/>
		<stop  offset="0.3807" style="stop-color:#24699C"/>
		<stop  offset="0.4292" style="stop-color:#3572A6"/>
		<stop  offset="0.4706" style="stop-color:#4B7EB3"/>
		<stop  offset="0.474" style="stop-color:#4D7FB4"/>
		<stop  offset="0.6122" style="stop-color:#3974A8"/>
		<stop  offset="0.86" style="stop-color:#1B6497"/>
		<stop  offset="1" style="stop-color:#105E90"/>
	</linearGradient>
	<path style="fill:url(#SVGID_4_);" d="M62.528,406.757l13.595-17.374l31.993-34.753h35.162l-45.384,49.571l48.144,64.702h-35.98
		l-32.913-46.302l-13.389,10.731v35.571H32.581V309.859h31.174v70.934l-1.636,25.964H62.528z"/>
	<linearGradient id="SVGID_5_" gradientUnits="userSpaceOnUse" x1="161.777" y1="412.7881" x2="267.2604" y2="412.7881">
		<stop  offset="0" style="stop-color:#105E90"/>
		<stop  offset="0.2354" style="stop-color:#125F91"/>
		<stop  offset="0.3202" style="stop-color:#196395"/>
		<stop  offset="0.3807" style="stop-color:#24699C"/>
		<stop  offset="0.4292" style="stop-color:#3572A6"/>
		<stop  offset="0.4706" style="stop-color:#4B7EB3"/>
		<stop  offset="0.474" style="stop-color:#4D7FB4"/>
		<stop  offset="0.6122" style="stop-color:#3974A8"/>
		<stop  offset="0.86" style="stop-color:#1B6497"/>
		<stop  offset="1" style="stop-color:#105E90"/>
	</linearGradient>
	<path style="fill:url(#SVGID_5_);" d="M243.344,468.902l-4.191-14.618h-1.636c-3.339,5.316-8.075,9.423-14.207,12.32
		c-6.133,2.893-13.119,4.342-20.953,4.342c-13.426,0-23.544-3.594-30.358-10.782c-6.814-7.188-10.222-17.531-10.222-31.022V354.63
		h31.176v66.745c0,8.245,1.464,14.426,4.394,18.549c2.928,4.126,7.597,6.186,14.004,6.186c8.72,0,15.025-2.913,18.909-8.738
		c3.884-5.829,5.825-15.487,5.825-28.978V354.63h31.174v114.272H243.344z"/>
	<linearGradient id="SVGID_6_" gradientUnits="userSpaceOnUse" x1="299.9695" y1="389.3808" x2="413.4257" y2="389.3808">
		<stop  offset="0" style="stop-color:#105E90"/>
		<stop  offset="0.2354" style="stop-color:#125F91"/>
		<stop  offset="0.3202" style="stop-color:#196395"/>
		<stop  offset="0.3807" style="stop-color:#24699C"/>
		<stop  offset="0.4292" style="stop-color:#3572A6"/>
		<stop  offset="0.4706" style="stop-color:#4B7EB3"/>
		<stop  offset="0.474" style="stop-color:#4D7FB4"/>
		<stop  offset="0.6122" style="stop-color:#3974A8"/>
		<stop  offset="0.86" style="stop-color:#1B6497"/>
		<stop  offset="1" style="stop-color:#105E90"/>
	</linearGradient>
	<path style="fill:url(#SVGID_6_);" d="M329.917,406.757l13.595-17.374l31.993-34.753h35.162l-45.384,49.571l48.144,64.702h-35.98
		l-32.913-46.302l-13.389,10.731v35.571H299.97V309.859h31.174v70.934l-1.636,25.964H329.917z"/>
	<linearGradient id="SVGID_7_" gradientUnits="userSpaceOnUse" x1="429.1636" y1="412.7881" x2="534.647" y2="412.7881">
		<stop  offset="0" style="stop-color:#105E90"/>
		<stop  offset="0.2354" style="stop-color:#125F91"/>
		<stop  offset="0.3202" style="stop-color:#196395"/>
		<stop  offset="0.3807" style="stop-color:#24699C"/>
		<stop  offset="0.4292" style="stop-color:#3572A6"/>
		<stop  offset="0.4706" style="stop-color:#4B7EB3"/>
		<stop  offset="0.474" style="stop-color:#4D7FB4"/>
		<stop  offset="0.6122" style="stop-color:#3974A8"/>
		<stop  offset="0.86" style="stop-color:#1B6497"/>
		<stop  offset="1" style="stop-color:#105E90"/>
	</linearGradient>
	<path style="fill:url(#SVGID_7_);" d="M510.731,468.902l-4.191-14.618h-1.636c-3.339,5.316-8.075,9.423-14.207,12.32
		c-6.133,2.893-13.119,4.342-20.953,4.342c-13.426,0-23.544-3.594-30.358-10.782c-6.814-7.188-10.222-17.531-10.222-31.022V354.63
		h31.176v66.745c0,8.245,1.464,14.426,4.395,18.549c2.928,4.126,7.597,6.186,14.004,6.186c8.72,0,15.025-2.913,18.909-8.738
		c3.884-5.829,5.825-15.487,5.825-28.978V354.63h31.174v114.272H510.731z"/>
	<linearGradient id="SVGID_8_" gradientUnits="userSpaceOnUse" x1="567.3581" y1="389.3808" x2="598.5325" y2="389.3808">
		<stop  offset="0" style="stop-color:#105E90"/>
		<stop  offset="0.2354" style="stop-color:#125F91"/>
		<stop  offset="0.3202" style="stop-color:#196395"/>
		<stop  offset="0.3807" style="stop-color:#24699C"/>
		<stop  offset="0.4292" style="stop-color:#3572A6"/>
		<stop  offset="0.4706" style="stop-color:#4B7EB3"/>
		<stop  offset="0.474" style="stop-color:#4D7FB4"/>
		<stop  offset="0.6122" style="stop-color:#3974A8"/>
		<stop  offset="0.86" style="stop-color:#1B6497"/>
		<stop  offset="1" style="stop-color:#105E90"/>
	</linearGradient>
	<path style="fill:url(#SVGID_8_);" d="M598.533,468.902h-31.174V309.859h31.174V468.902z"/>
	<linearGradient id="SVGID_9_" gradientUnits="userSpaceOnUse" x1="631.2397" y1="389.3808" x2="744.6958" y2="389.3808">
		<stop  offset="0" style="stop-color:#105E90"/>
		<stop  offset="0.2354" style="stop-color:#125F91"/>
		<stop  offset="0.3202" style="stop-color:#196395"/>
		<stop  offset="0.3807" style="stop-color:#24699C"/>
		<stop  offset="0.4292" style="stop-color:#3572A6"/>
		<stop  offset="0.4706" style="stop-color:#4B7EB3"/>
		<stop  offset="0.474" style="stop-color:#4D7FB4"/>
		<stop  offset="0.6122" style="stop-color:#3974A8"/>
		<stop  offset="0.86" style="stop-color:#1B6497"/>
		<stop  offset="1" style="stop-color:#105E90"/>
	</linearGradient>
	<path style="fill:url(#SVGID_9_);" d="M661.187,406.757l13.595-17.374l31.993-34.753h35.162l-45.384,49.571l48.144,64.702h-35.98
		l-32.913-46.302l-13.389,10.731v35.571H631.24V309.859h31.174v70.934l-1.636,25.964H661.187z"/>
	<linearGradient id="SVGID_10_" gradientUnits="userSpaceOnUse" x1="753.4868" y1="389.739" x2="855.392" y2="389.739">
		<stop  offset="0" style="stop-color:#105E90"/>
		<stop  offset="0.2354" style="stop-color:#125F91"/>
		<stop  offset="0.3202" style="stop-color:#196395"/>
		<stop  offset="0.3807" style="stop-color:#24699C"/>
		<stop  offset="0.4292" style="stop-color:#3572A6"/>
		<stop  offset="0.4706" style="stop-color:#4B7EB3"/>
		<stop  offset="0.474" style="stop-color:#4D7FB4"/>
		<stop  offset="0.6122" style="stop-color:#3974A8"/>
		<stop  offset="0.86" style="stop-color:#1B6497"/>
		<stop  offset="1" style="stop-color:#105E90"/>
	</linearGradient>
	<path style="fill:url(#SVGID_10_);" d="M833.621,468.902l-6.031-15.534h-0.818c-5.248,6.608-10.647,11.189-16.2,13.745
		c-5.555,2.556-12.794,3.833-21.72,3.833c-10.971,0-19.61-3.132-25.911-9.404c-6.305-6.268-9.455-15.194-9.455-26.778
		c0-12.128,4.242-21.074,12.725-26.833c8.484-5.755,21.276-8.942,38.38-9.556l19.829-0.615v-5.007
		c0-11.584-5.927-17.374-17.784-17.374c-9.133,0-19.866,2.76-32.198,8.276l-10.324-21.054c13.15-6.882,27.733-10.324,43.747-10.324
		c15.333,0,27.087,3.339,35.264,10.018s12.265,16.83,12.265,30.458v76.149H833.621z M824.421,415.957l-12.06,0.407
		c-9.063,0.274-15.81,1.91-20.238,4.905c-4.432,3.003-6.644,7.564-6.644,13.698c0,8.789,5.04,13.185,15.127,13.185
		c7.221,0,12.996-2.079,17.326-6.236c4.326-4.154,6.489-9.674,6.489-16.556V415.957z M789.772,342.055v-2.76
		c11.719-13.628,19.727-23.881,24.02-30.763h34.956v2.145c-3.545,3.543-9.592,8.809-18.144,15.793
		c-8.552,6.984-15.247,12.179-20.083,15.585H789.772z"/>
	<linearGradient id="SVGID_11_" gradientUnits="userSpaceOnUse" x1="887.4864" y1="410.6916" x2="992.9678" y2="410.6916">
		<stop  offset="0" style="stop-color:#105E90"/>
		<stop  offset="0.2354" style="stop-color:#125F91"/>
		<stop  offset="0.3202" style="stop-color:#196395"/>
		<stop  offset="0.3807" style="stop-color:#24699C"/>
		<stop  offset="0.4292" style="stop-color:#3572A6"/>
		<stop  offset="0.4706" style="stop-color:#4B7EB3"/>
		<stop  offset="0.474" style="stop-color:#4D7FB4"/>
		<stop  offset="0.6122" style="stop-color:#3974A8"/>
		<stop  offset="0.86" style="stop-color:#1B6497"/>
		<stop  offset="1" style="stop-color:#105E90"/>
	</linearGradient>
	<path style="fill:url(#SVGID_11_);" d="M992.968,468.902h-31.171v-66.745c0-8.245-1.468-14.426-4.4-18.553
		c-2.928-4.118-7.595-6.182-14-6.182c-8.722,0-15.025,2.913-18.909,8.738c-3.884,5.825-5.825,15.487-5.825,28.978v53.763h-31.176
		V354.63h23.816l4.189,14.614h1.738c3.476-5.52,8.26-9.693,14.36-12.52s13.033-4.244,20.804-4.244
		c13.287,0,23.368,3.598,30.254,10.786c6.879,7.188,10.32,17.562,10.32,31.124V468.902z"/>
</g>
<g>
	<linearGradient id="SVGID_12_" gradientUnits="userSpaceOnUse" x1="646.4583" y1="247.5926" x2="737.5944" y2="247.5926">
		<stop  offset="0" style="stop-color:#599EC9"/>
		<stop  offset="0.085" style="stop-color:#4D93BF"/>
		<stop  offset="0.3033" style="stop-color:#327CAB"/>
		<stop  offset="0.5266" style="stop-color:#1F6B9C"/>
		<stop  offset="0.7558" style="stop-color:#146193"/>
		<stop  offset="1" style="stop-color:#105E90"/>
	</linearGradient>
	<path style="fill:url(#SVGID_12_);" d="M731.985,293.16c-3.108,0-5.623-2.513-5.623-5.614v-54.743
		c0-10.777-8.768-19.545-19.549-19.545h-54.736c-3.104,0-5.618-2.517-5.618-5.618c0-3.099,2.515-5.614,5.618-5.614h54.736
		c16.979,0,30.782,13.809,30.782,30.777v54.743C737.594,290.647,735.084,293.16,731.985,293.16z"/>
</g>
<g>
	<linearGradient id="SVGID_13_" gradientUnits="userSpaceOnUse" x1="277.1909" y1="611.2504" x2="368.3275" y2="611.2504">
		<stop  offset="0" style="stop-color:#599EC9"/>
		<stop  offset="0.085" style="stop-color:#4D93BF"/>
		<stop  offset="0.3033" style="stop-color:#327CAB"/>
		<stop  offset="0.5266" style="stop-color:#1F6B9C"/>
		<stop  offset="0.7558" style="stop-color:#146193"/>
		<stop  offset="1" style="stop-color:#105E90"/>
	</linearGradient>
	<path style="fill:url(#SVGID_13_);" d="M362.709,656.817h-54.741c-16.97,0-30.777-13.807-30.777-30.78v-54.74
		c0-3.106,2.515-5.614,5.614-5.614c3.099,0,5.614,2.508,5.614,5.614v54.74c0,10.78,8.773,19.547,19.549,19.547h54.741
		c3.108,0,5.619,2.51,5.619,5.616C368.328,654.305,365.817,656.817,362.709,656.817z"/>
</g>
<g>
	<linearGradient id="SVGID_14_" gradientUnits="userSpaceOnUse" x1="646.4583" y1="611.2504" x2="737.5944" y2="611.2504">
		<stop  offset="0" style="stop-color:#599EC9"/>
		<stop  offset="0.085" style="stop-color:#4D93BF"/>
		<stop  offset="0.3033" style="stop-color:#327CAB"/>
		<stop  offset="0.5266" style="stop-color:#1F6B9C"/>
		<stop  offset="0.7558" style="stop-color:#146193"/>
		<stop  offset="1" style="stop-color:#105E90"/>
	</linearGradient>
	<path style="fill:url(#SVGID_14_);" d="M706.813,656.817h-54.736c-3.104,0-5.618-2.513-5.618-5.616
		c0-3.106,2.515-5.616,5.618-5.616h54.736c10.781,0,19.549-8.768,19.549-19.547v-54.74c0-3.106,2.515-5.614,5.623-5.614
		c3.099,0,5.609,2.508,5.609,5.614v54.74C737.594,643.01,723.792,656.817,706.813,656.817z"/>
</g>
<g>
	<path style="fill:#F9F8F7;" d="M33,515.463v-4.112c0.47,0.415,1.035,0.789,1.692,1.121c0.657,0.333,1.349,0.613,2.077,0.841
		c0.727,0.228,1.457,0.406,2.191,0.529c0.733,0.125,1.412,0.187,2.035,0.187c2.146,0,3.748-0.397,4.808-1.194
		c1.059-0.796,1.588-1.941,1.588-3.437c0-0.803-0.176-1.502-0.529-2.098c-0.353-0.595-0.841-1.138-1.464-1.63
		c-0.623-0.491-1.36-0.963-2.211-1.413c-0.852-0.449-1.769-0.924-2.752-1.422c-1.038-0.526-2.007-1.059-2.907-1.599
		c-0.9-0.54-1.682-1.135-2.347-1.786c-0.664-0.651-1.187-1.388-1.568-2.212c-0.381-0.823-0.571-1.789-0.571-2.897
		c0-1.357,0.297-2.537,0.893-3.541c0.595-1.003,1.378-1.83,2.347-2.481c0.969-0.651,2.073-1.135,3.312-1.454
		c1.239-0.318,2.502-0.478,3.79-0.478c2.935,0,5.074,0.353,6.417,1.06v3.925c-1.758-1.218-4.015-1.828-6.77-1.828
		c-0.761,0-1.523,0.08-2.284,0.239c-0.762,0.16-1.44,0.42-2.035,0.779c-0.595,0.36-1.08,0.824-1.454,1.392
		c-0.374,0.568-0.561,1.26-0.561,2.077c0,0.762,0.142,1.419,0.425,1.973c0.284,0.554,0.703,1.059,1.257,1.515
		c0.554,0.458,1.229,0.9,2.025,1.329c0.796,0.429,1.714,0.9,2.752,1.412c1.066,0.526,2.077,1.08,3.032,1.662
		c0.955,0.581,1.793,1.225,2.512,1.931c0.72,0.706,1.291,1.489,1.714,2.347c0.422,0.858,0.634,1.841,0.634,2.948
		c0,1.468-0.287,2.711-0.862,3.728c-0.575,1.018-1.35,1.845-2.326,2.481c-0.976,0.637-2.101,1.097-3.375,1.381
		c-1.274,0.283-2.617,0.426-4.029,0.426c-0.471,0-1.052-0.039-1.744-0.114c-0.693-0.077-1.399-0.187-2.118-0.333
		c-0.72-0.145-1.402-0.325-2.045-0.54C33.903,515.965,33.387,515.726,33,515.463z"/>
	<path style="fill:#F9F8F7;" d="M82.429,517.167c-3.143,0-5.652-0.993-7.528-2.98c-1.876-1.987-2.814-4.621-2.814-7.903
		c0-3.572,0.976-6.361,2.928-8.369c1.952-2.008,4.59-3.012,7.912-3.012c3.17,0,5.645,0.976,7.424,2.928
		c1.779,1.952,2.668,4.659,2.668,8.12c0,3.392-0.958,6.109-2.876,8.151C88.226,516.146,85.655,517.167,82.429,517.167z
		 M82.678,497.769c-2.188,0-3.918,0.745-5.191,2.233c-1.274,1.488-1.911,3.54-1.911,6.157c0,2.52,0.644,4.507,1.931,5.96
		c1.288,1.454,3.011,2.181,5.171,2.181c2.202,0,3.894-0.713,5.078-2.139c1.184-1.427,1.775-3.455,1.775-6.085
		c0-2.659-0.592-4.707-1.775-6.147C86.573,498.49,84.88,497.769,82.678,497.769z"/>
	<path style="fill:#F9F8F7;" d="M125.982,488.175c-0.664-0.373-1.419-0.56-2.264-0.56c-2.381,0-3.572,1.502-3.572,4.506v3.281h4.984
		v2.907h-4.984v18.358h-3.385v-18.358h-3.634v-2.907h3.634v-3.447c0-2.229,0.644-3.99,1.931-5.285
		c1.288-1.295,2.893-1.942,4.818-1.942c1.039,0,1.862,0.125,2.471,0.374V488.175z"/>
	<path style="fill:#F9F8F7;" d="M155.662,516.46c-0.803,0.444-1.862,0.665-3.177,0.665c-3.725,0-5.587-2.077-5.587-6.23v-12.585
		h-3.655v-2.907h3.655v-5.192l3.406-1.1v6.292h5.358v2.907h-5.358v11.983c0,1.427,0.242,2.443,0.727,3.053
		c0.484,0.609,1.287,0.913,2.409,0.913c0.858,0,1.599-0.235,2.222-0.706V516.46z"/>
	<path style="fill:#F9F8F7;" d="M204.012,495.402l-6.376,21.265h-3.531l-4.382-15.222c-0.166-0.582-0.277-1.24-0.332-1.973h-0.083
		c-0.041,0.498-0.187,1.141-0.436,1.931l-4.755,15.264h-3.406l-6.438-21.265h3.572l4.403,15.991c0.138,0.484,0.235,1.121,0.291,1.91
		h0.166c0.042-0.609,0.166-1.259,0.374-1.952l4.901-15.949h3.115l4.403,16.032c0.138,0.513,0.242,1.149,0.311,1.911h0.166
		c0.027-0.54,0.145-1.177,0.353-1.911l4.32-16.032H204.012z"/>
	<path style="fill:#F9F8F7;" d="M240.192,516.668h-3.405v-3.323h-0.083c-1.482,2.547-3.662,3.821-6.541,3.821
		c-2.118,0-3.776-0.561-4.974-1.682c-1.198-1.121-1.797-2.609-1.797-4.465c0-3.973,2.34-6.286,7.02-6.937l6.376-0.893
		c0-3.613-1.461-5.42-4.382-5.42c-2.562,0-4.874,0.873-6.936,2.617v-3.488c2.09-1.329,4.499-1.994,7.227-1.994
		c4.997,0,7.497,2.645,7.497,7.933V516.668z M236.787,505.911l-5.13,0.706c-1.578,0.221-2.769,0.612-3.572,1.173
		c-0.803,0.561-1.205,1.555-1.205,2.98c0,1.039,0.37,1.886,1.111,2.544c0.74,0.658,1.727,0.987,2.959,0.987
		c1.689,0,3.084-0.592,4.185-1.775c1.101-1.185,1.651-2.683,1.651-4.497V505.911z"/>
	<path style="fill:#F9F8F7;" d="M274.711,498.849c-0.595-0.457-1.454-0.685-2.575-0.685c-1.454,0-2.668,0.685-3.644,2.055
		c-0.976,1.371-1.464,3.24-1.464,5.607v10.84h-3.406v-21.265h3.406v4.381h0.083c0.485-1.494,1.225-2.661,2.222-3.499
		c0.997-0.837,2.111-1.257,3.343-1.257c0.886,0,1.565,0.097,2.035,0.291V498.849z"/>
	<path style="fill:#F9F8F7;" d="M312.511,506.886h-15.014c0.055,2.367,0.692,4.195,1.91,5.483c1.218,1.288,2.893,1.932,5.026,1.932
		c2.395,0,4.596-0.789,6.604-2.368v3.199c-1.869,1.357-4.34,2.035-7.414,2.035c-3.004,0-5.365-0.966-7.081-2.898
		c-1.717-1.931-2.575-4.648-2.575-8.151c0-3.309,0.938-6.005,2.814-8.089c1.876-2.084,4.205-3.126,6.988-3.126
		c2.783,0,4.935,0.9,6.458,2.7c1.523,1.8,2.284,4.299,2.284,7.497V506.886z M309.023,504c-0.014-1.966-0.488-3.496-1.423-4.59
		c-0.934-1.094-2.232-1.641-3.894-1.641c-1.606,0-2.97,0.575-4.091,1.724c-1.121,1.15-1.813,2.651-2.077,4.507H309.023z"/>
	<path style="fill:#F9F8F7;" d="M363.793,516.668v-29.78h8.224c10.494,0,15.741,4.839,15.741,14.516
		c0,4.597-1.457,8.29-4.371,11.079c-2.915,2.79-6.815,4.185-11.702,4.185H363.793z M367.282,490.044v23.467h4.444
		c3.904,0,6.943-1.045,9.116-3.135c2.174-2.09,3.261-5.053,3.261-8.889c0-7.629-4.057-11.443-12.169-11.443H367.282z"/>
	<path style="fill:#F9F8F7;" d="M427.261,506.886h-15.014c0.055,2.367,0.692,4.195,1.91,5.483c1.218,1.288,2.893,1.932,5.026,1.932
		c2.395,0,4.596-0.789,6.604-2.368v3.199c-1.869,1.357-4.34,2.035-7.414,2.035c-3.004,0-5.365-0.966-7.081-2.898
		c-1.717-1.931-2.575-4.648-2.575-8.151c0-3.309,0.938-6.005,2.814-8.089c1.876-2.084,4.205-3.126,6.988-3.126
		c2.783,0,4.935,0.9,6.458,2.7c1.523,1.8,2.284,4.299,2.284,7.497V506.886z M423.773,504c-0.014-1.966-0.488-3.496-1.423-4.59
		c-0.934-1.094-2.232-1.641-3.894-1.641c-1.606,0-2.97,0.575-4.091,1.724c-1.121,1.15-1.813,2.651-2.077,4.507H423.773z"/>
	<path style="fill:#F9F8F7;" d="M466.142,495.402l-8.473,21.265h-3.343l-8.058-21.265h3.738l5.399,15.451
		c0.402,1.135,0.651,2.125,0.748,2.97h0.083c0.138-1.066,0.36-2.028,0.664-2.887l5.649-15.534H466.142z"/>
	<path style="fill:#F9F8F7;" d="M503.9,506.886h-15.015c0.055,2.367,0.692,4.195,1.911,5.483c1.218,1.288,2.893,1.932,5.026,1.932
		c2.395,0,4.596-0.789,6.604-2.368v3.199c-1.869,1.357-4.34,2.035-7.414,2.035c-3.004,0-5.364-0.966-7.081-2.898
		c-1.716-1.931-2.574-4.648-2.574-8.151c0-3.309,0.937-6.005,2.813-8.089s4.206-3.126,6.988-3.126c2.783,0,4.935,0.9,6.459,2.7
		c1.523,1.8,2.284,4.299,2.284,7.497V506.886z M500.411,504c-0.014-1.966-0.488-3.496-1.422-4.59
		c-0.935-1.094-2.233-1.641-3.894-1.641c-1.606,0-2.97,0.575-4.091,1.724c-1.121,1.15-1.814,2.651-2.077,4.507H500.411z"/>
	<path style="fill:#F9F8F7;" d="M529.468,516.668h-3.406v-31.482h3.406V516.668z"/>
	<path style="fill:#F9F8F7;" d="M562.264,517.167c-3.143,0-5.653-0.993-7.528-2.98c-1.876-1.987-2.813-4.621-2.813-7.903
		c0-3.572,0.975-6.361,2.927-8.369c1.953-2.008,4.59-3.012,7.913-3.012c3.169,0,5.644,0.976,7.424,2.928
		c1.779,1.952,2.668,4.659,2.668,8.12c0,3.392-0.958,6.109-2.877,8.151C568.062,516.146,565.489,517.167,562.264,517.167z
		 M562.514,497.769c-2.188,0-3.919,0.745-5.192,2.233c-1.274,1.488-1.911,3.54-1.911,6.157c0,2.52,0.644,4.507,1.932,5.96
		c1.287,1.454,3.011,2.181,5.171,2.181c2.201,0,3.893-0.713,5.077-2.139c1.185-1.427,1.776-3.455,1.776-6.085
		c0-2.659-0.592-4.707-1.776-6.147C566.407,498.49,564.715,497.769,562.514,497.769z"/>
	<path style="fill:#F9F8F7;" d="M598.798,513.595h-0.083v12.855h-3.406v-31.047h3.406v3.738h0.083
		c1.675-2.824,4.125-4.237,7.351-4.237c2.741,0,4.88,0.952,6.417,2.855c1.538,1.904,2.306,4.455,2.306,7.653
		c0,3.558-0.865,6.406-2.596,8.545c-1.731,2.14-4.098,3.209-7.102,3.209C602.417,517.167,600.292,515.976,598.798,513.595z
		 M598.714,505.018v2.97c0,1.758,0.571,3.25,1.713,4.475c1.142,1.225,2.592,1.838,4.351,1.838c2.063,0,3.68-0.789,4.85-2.368
		c1.17-1.578,1.754-3.772,1.754-6.583c0-2.367-0.546-4.223-1.64-5.566c-1.094-1.342-2.575-2.014-4.445-2.014
		c-1.979,0-3.572,0.689-4.776,2.067C599.317,501.213,598.714,502.94,598.714,505.018z"/>
	<path style="fill:#F9F8F7;" d="M667.519,516.668h-3.406v-12.211c0-2.353-0.364-4.056-1.09-5.108
		c-0.727-1.053-1.949-1.579-3.666-1.579c-1.453,0-2.689,0.665-3.707,1.994c-1.017,1.328-1.526,2.921-1.526,4.777v12.128h-3.406
		v-12.626c0-4.181-1.613-6.272-4.839-6.272c-1.494,0-2.727,0.627-3.695,1.88c-0.97,1.253-1.454,2.883-1.454,4.891v12.128h-3.406
		v-21.265h3.406v3.365h0.083c1.508-2.575,3.709-3.864,6.604-3.864c1.453,0,2.72,0.406,3.8,1.215s1.82,1.873,2.222,3.187
		c1.578-2.935,3.931-4.402,7.06-4.402c4.679,0,7.019,2.887,7.019,8.66V516.668z"/>
	<path style="fill:#F9F8F7;" d="M708.06,506.886h-15.015c0.055,2.367,0.692,4.195,1.911,5.483c1.219,1.288,2.893,1.932,5.026,1.932
		c2.395,0,4.596-0.789,6.604-2.368v3.199c-1.869,1.357-4.34,2.035-7.414,2.035c-3.004,0-5.364-0.966-7.081-2.898
		c-1.716-1.931-2.574-4.648-2.574-8.151c0-3.309,0.937-6.005,2.813-8.089c1.876-2.084,4.206-3.126,6.988-3.126s4.935,0.9,6.459,2.7
		c1.523,1.8,2.284,4.299,2.284,7.497V506.886z M704.571,504c-0.014-1.966-0.488-3.496-1.422-4.59
		c-0.935-1.094-2.233-1.641-3.894-1.641c-1.606,0-2.969,0.575-4.091,1.724c-1.121,1.15-1.814,2.651-2.077,4.507H704.571z"/>
	<path style="fill:#F9F8F7;" d="M747.875,516.668h-3.406V504.54c0-4.513-1.648-6.771-4.943-6.771c-1.702,0-3.112,0.64-4.226,1.921
		c-1.115,1.281-1.672,2.897-1.672,4.85v12.128h-3.406v-21.265h3.406v3.531h0.083c1.605-2.686,3.931-4.029,6.977-4.029
		c2.326,0,4.106,0.751,5.338,2.254c1.232,1.502,1.848,3.672,1.848,6.51V516.668z"/>
	<path style="fill:#F9F8F7;" d="M781.169,516.46c-0.803,0.444-1.863,0.665-3.178,0.665c-3.724,0-5.586-2.077-5.586-6.23v-12.585
		h-3.655v-2.907h3.655v-5.192l3.405-1.1v6.292h5.359v2.907h-5.359v11.983c0,1.427,0.243,2.443,0.727,3.053
		c0.485,0.609,1.288,0.913,2.409,0.913c0.858,0,1.599-0.235,2.222-0.706V516.46z"/>
	<path style="fill:#F9F8F7;" d="M849.459,490.044h-8.598v26.623h-3.488v-26.623h-8.577v-3.157h20.663V490.044z"/>
	<path style="fill:#F9F8F7;" d="M879.575,517.167c-3.143,0-5.653-0.993-7.528-2.98c-1.876-1.987-2.813-4.621-2.813-7.903
		c0-3.572,0.975-6.361,2.927-8.369c1.953-2.008,4.59-3.012,7.913-3.012c3.169,0,5.644,0.976,7.424,2.928
		c1.779,1.952,2.668,4.659,2.668,8.12c0,3.392-0.958,6.109-2.877,8.151C885.372,516.146,882.8,517.167,879.575,517.167z
		 M879.824,497.769c-2.188,0-3.919,0.745-5.192,2.233c-1.274,1.488-1.911,3.54-1.911,6.157c0,2.52,0.644,4.507,1.932,5.96
		c1.287,1.454,3.011,2.181,5.171,2.181c2.201,0,3.893-0.713,5.077-2.139c1.185-1.427,1.776-3.455,1.776-6.085
		c0-2.659-0.592-4.707-1.776-6.147C883.718,498.49,882.026,497.769,879.824,497.769z"/>
	<path style="fill:#F9F8F7;" d="M921.508,517.167c-3.143,0-5.653-0.993-7.528-2.98c-1.876-1.987-2.813-4.621-2.813-7.903
		c0-3.572,0.975-6.361,2.927-8.369c1.953-2.008,4.59-3.012,7.913-3.012c3.169,0,5.644,0.976,7.424,2.928
		c1.779,1.952,2.668,4.659,2.668,8.12c0,3.392-0.958,6.109-2.877,8.151C927.305,516.146,924.733,517.167,921.508,517.167z
		 M921.757,497.769c-2.188,0-3.919,0.745-5.192,2.233c-1.274,1.488-1.911,3.54-1.911,6.157c0,2.52,0.644,4.507,1.932,5.96
		c1.287,1.454,3.011,2.181,5.171,2.181c2.201,0,3.893-0.713,5.077-2.139c1.185-1.427,1.776-3.455,1.776-6.085
		c0-2.659-0.592-4.707-1.776-6.147C925.65,498.49,923.958,497.769,921.757,497.769z"/>
	<path style="fill:#F9F8F7;" d="M957.959,516.668h-3.406v-31.482h3.406V516.668z"/>
	<path style="fill:#F9F8F7;" d="M980.578,515.899v-3.655c1.855,1.371,3.896,2.056,6.126,2.056c2.991,0,4.486-0.998,4.486-2.991
		c0-0.567-0.129-1.048-0.385-1.444c-0.257-0.394-0.602-0.744-1.039-1.048c-0.435-0.304-0.948-0.578-1.537-0.82
		c-0.589-0.243-1.222-0.496-1.9-0.759c-0.942-0.373-1.769-0.75-2.481-1.132c-0.713-0.38-1.308-0.809-1.786-1.287
		s-0.838-1.021-1.08-1.631c-0.242-0.609-0.364-1.322-0.364-2.139c0-0.997,0.228-1.879,0.686-2.647
		c0.457-0.768,1.065-1.413,1.827-1.932c0.761-0.519,1.63-0.91,2.606-1.173c0.976-0.263,1.984-0.395,3.021-0.395
		c1.842,0,3.49,0.319,4.943,0.955v3.447c-1.564-1.024-3.364-1.537-5.399-1.537c-0.637,0-1.211,0.073-1.724,0.219
		c-0.513,0.145-0.952,0.35-1.319,0.612c-0.367,0.263-0.651,0.578-0.852,0.945c-0.201,0.368-0.301,0.773-0.301,1.215
		c0,0.554,0.1,1.018,0.301,1.392c0.201,0.373,0.496,0.706,0.883,0.997c0.387,0.291,0.858,0.554,1.412,0.789
		c0.554,0.236,1.184,0.491,1.89,0.768c0.942,0.36,1.786,0.73,2.534,1.111c0.747,0.382,1.384,0.811,1.911,1.288
		c0.525,0.478,0.93,1.027,1.214,1.651c0.284,0.622,0.426,1.363,0.426,2.222c0,1.051-0.232,1.966-0.695,2.741
		c-0.464,0.775-1.084,1.419-1.859,1.931c-0.776,0.513-1.669,0.893-2.679,1.142c-1.011,0.249-2.07,0.374-3.178,0.374
		C984.08,517.167,982.183,516.744,980.578,515.899z"/>
</g>
<g>
	<linearGradient id="SVGID_15_" gradientUnits="userSpaceOnUse" x1="142.165" y1="156.7639" x2="314.6647" y2="156.7639">
		<stop  offset="0" style="stop-color:#944A00"/>
		<stop  offset="0" style="stop-color:#A05605"/>
		<stop  offset="0" style="stop-color:#C27712"/>
		<stop  offset="0" style="stop-color:#DD911D"/>
		<stop  offset="0" style="stop-color:#F0A324"/>
		<stop  offset="0" style="stop-color:#FBAE29"/>
		<stop  offset="0" style="stop-color:#FFB22A"/>
		<stop  offset="0.6854" style="stop-color:#FFB22A"/>
		<stop  offset="1" style="stop-color:#FF6315"/>
	</linearGradient>
	<path style="fill:url(#SVGID_15_);" d="M159.103,201.528c-7.209-1.319-6.934-0.591-5.934-7.706
		c1.279-9.104,7.177-15.289,14.506-20.254c9.839-6.666,21.158-8.992,32.537-11.305c7.635-1.552,15.203-3.511,22.69-5.671
		c2.731-0.788,5.142-2.685,7.699-4.075c-0.161-0.418-0.322-0.837-0.483-1.255c-3.137,0.623-6.26,1.339-9.415,1.853
		c-9.843,1.604-19.747,2.879-29.536,4.757c-10.577,2.029-20.868,5.056-29.623,11.79c-8.068,6.206-13.506,14.052-15.128,24.277
		c-0.058,0.364-0.186,0.719-0.299,1.072c-0.021,0.067-0.125,0.107-0.299,0.246c-2.582-2.874-3.539-6.337-3.652-10.075
		c-0.019-0.625,0.394-1.44,0.873-1.875c4.934-4.477,6.811-9.96,5.819-16.539c-0.129-0.855,0.314-2.008,0.873-2.724
		c7.448-9.541,17.43-14.956,29.049-17.683c13.792-3.238,27.833-3.164,41.866-3.205c12.06-0.035,24.077-0.143,35.871-3.376
		c15.558-4.265,29.252-11.793,41.145-22.624c1.785-1.626,3.229-3.626,5.171-5.156c-1.439,8.542-4.662,16.195-9.282,23.214
		c-6.772,10.287-15.545,18.596-25.856,25.285c-1.488,0.965-3.293,1.46-4.719,2.493c-0.723,0.523-0.928,1.761-1.367,2.676
		c0.85,0.022,1.756,0.25,2.539,0.034c5.792-1.595,11.66-2.994,17.313-4.995c11.515-4.075,21.4-10.899,30.451-18.997
		c0.758-0.678,1.52-1.351,2.753-1.681c-1.298,1.973-2.496,4.021-3.909,5.908c-12.774,17.063-29.269,29.439-48.733,37.795
		c-11.57,4.967-23.428,9.263-35.159,13.855c-0.242,0.095-0.516,0.111-0.865,0.182c1.521-2.888,3.071-5.631,4.436-8.462
		c3.122-6.475,4.26-13.388,4.515-20.522c0.042-1.183,0.871-2.488,1.666-3.469c3.059-3.774,6.298-7.404,9.334-11.196
		c0.347-0.434-0.163-1.554-0.276-2.356c-0.701,0.273-1.684,0.338-2.061,0.85c-6.516,8.829-15.724,13.329-26.004,15.774
		c-8.597,2.045-17.354,3.408-26.013,5.205c-8.426,1.749-16.616,4.141-23.645,9.45C161.867,187.639,158.107,193.331,159.103,201.528z
		"/>
	<linearGradient id="SVGID_16_" gradientUnits="userSpaceOnUse" x1="73.8306" y1="206.0883" x2="323.434" y2="206.0883">
		<stop  offset="0" style="stop-color:#944A00"/>
		<stop  offset="0" style="stop-color:#A05605"/>
		<stop  offset="0" style="stop-color:#C27712"/>
		<stop  offset="0" style="stop-color:#DD911D"/>
		<stop  offset="0" style="stop-color:#F0A324"/>
		<stop  offset="0" style="stop-color:#FBAE29"/>
		<stop  offset="0" style="stop-color:#FFB22A"/>
		<stop  offset="0.6854" style="stop-color:#FFB22A"/>
		<stop  offset="1" style="stop-color:#FF6315"/>
	</linearGradient>
	<path style="fill:url(#SVGID_16_);" d="M320.392,186.167c-4.758,2.546-9.351,5.487-14.31,7.551
		c-9.016,3.753-18.254,6.971-27.378,10.465c-0.581,0.222-0.987,0.9-1.474,1.367c0.808,0.243,1.656,0.786,2.418,0.685
		c9.75-1.298,19.214-3.726,28.207-7.75c5.012-2.242,9.907-4.744,15.578-7.478c-13.566,17.025-29.189,29.331-51.08,30.735
		c-5.283,0.339-10.707-1.416-16.052-2.295c-0.789-0.13-1.593-0.626-2.23-1.148c-7.439-6.104-16.132-7.808-25.436-7.18
		c-11.407,0.771-22.072,4.461-32.656,8.48c-10.456,3.971-20.81,8.213-32.079,9.614c-10.412,1.294-20.04-0.622-29.042-5.88
		c-12.913-7.543-26.496-13.256-41.65-13.719c-6.516-0.199-13.069,0.819-19.379,1.268c6.7-6.686,8.683-15.306,6.233-25.141
		c18.95,0.406,37.587,2.677,56.257,1.344c0.887,2.784,1.512,5.953,2.866,8.77c4.212,8.763,12.031,11.939,21.098,12.72
		c2.386,0.205,4.354,0.67,6.39,2.135c6.804,4.895,14.702,6.158,22.847,5.618c11.048-0.733,21.241-3.925,29.742-11.448
		c0.709-0.628,1.815-0.979,2.785-1.114c20.88-2.91,40.287-9.946,58.419-20.639c0.809-0.477,2.188-0.748,2.973-0.392
		c11.53,5.238,23.435,5.771,35.635,3.114c0.353-0.077,0.706-0.15,1.059-0.225C320.221,185.805,320.307,185.986,320.392,186.167z"/>
	<linearGradient id="SVGID_17_" gradientUnits="userSpaceOnUse" x1="65.2703" y1="152.7574" x2="154.1066" y2="152.7574">
		<stop  offset="0" style="stop-color:#944A00"/>
		<stop  offset="0" style="stop-color:#A05605"/>
		<stop  offset="0" style="stop-color:#C27712"/>
		<stop  offset="0" style="stop-color:#DD911D"/>
		<stop  offset="0" style="stop-color:#F0A324"/>
		<stop  offset="0" style="stop-color:#FBAE29"/>
		<stop  offset="0" style="stop-color:#FFB22A"/>
		<stop  offset="0.6854" style="stop-color:#FFB22A"/>
		<stop  offset="1" style="stop-color:#FF6315"/>
	</linearGradient>
	<path style="fill:url(#SVGID_17_);" d="M65.27,163.218c4.21-6.937,10.557-11.399,19.298-11.537
		c8.861-0.14,14.065,6.109,19.502,11.969c-0.081-6.048-3.813-9.848-8.052-13.537c2.405-5.715,6.844-9.212,12.679-10.459
		c5.956-1.272,12.06-2.118,18.14-2.483c10.397-0.624,19.495-3.833,26.754-11.534c0.103-0.109,0.334-0.096,0.508-0.14
		c0.205,8.7-4.997,24.873-10.273,31.951c-8.781-4.792-17.562-3.798-21.724,3.216c0.946-0.346,1.941-0.597,2.83-1.054
		c6.402-3.287,13.564-1.502,16.77,4.22c3.736,6.668-0.389,15.263-8.12,15.912c-6.251,0.525-12.6,0.193-18.888-0.111
		c-12.13-0.586-24.249-1.397-36.367-2.203c-0.872-0.058-1.932-0.634-2.503-1.309C72.324,171.973,68.938,167.728,65.27,163.218z"/>
	<linearGradient id="SVGID_18_" gradientUnits="userSpaceOnUse" x1="24.2209" y1="191.4365" x2="73.6901" y2="191.4365">
		<stop  offset="0" style="stop-color:#944A00"/>
		<stop  offset="0" style="stop-color:#A05605"/>
		<stop  offset="0" style="stop-color:#C27712"/>
		<stop  offset="0" style="stop-color:#DD911D"/>
		<stop  offset="0" style="stop-color:#F0A324"/>
		<stop  offset="0" style="stop-color:#FBAE29"/>
		<stop  offset="0" style="stop-color:#FFB22A"/>
		<stop  offset="0.6854" style="stop-color:#FFB22A"/>
		<stop  offset="1" style="stop-color:#FF6315"/>
	</linearGradient>
	<path style="fill:url(#SVGID_18_);" d="M51.54,183.49c-0.167,0.876-0.359,1.389-0.348,1.898c0.114,5.239-2.055,9.261-6.877,11.288
		c-5.109,2.148-10.232,1.671-14.631-1.928c-9.032-7.39-6.403-22.912,4.488-28.054c12.707-6,23.865-1.166,32.212,8.464
		c4.408,5.085,7.101,10.971,7.299,17.927c0.165,5.817-2.43,10.204-6.559,13.761c-7.11,6.125-15.199,10.37-24.619,11.724
		c-7.844,1.127-14.215-1.617-16.98-7.632c-0.733-1.595-0.987-3.7-0.671-5.426c0.662-3.611,2.549-4.443,5.809-3.093
		c9.403,3.892,21.027-1.23,23.158-10.205C54.629,188.809,53.836,185.281,51.54,183.49z"/>
	<linearGradient id="SVGID_19_" gradientUnits="userSpaceOnUse" x1="258.2635" y1="235.744" x2="331.8464" y2="235.744">
		<stop  offset="0" style="stop-color:#944A00"/>
		<stop  offset="0" style="stop-color:#A05605"/>
		<stop  offset="0" style="stop-color:#C27712"/>
		<stop  offset="0" style="stop-color:#DD911D"/>
		<stop  offset="0" style="stop-color:#F0A324"/>
		<stop  offset="0" style="stop-color:#FBAE29"/>
		<stop  offset="0" style="stop-color:#FFB22A"/>
		<stop  offset="0.6854" style="stop-color:#FFB22A"/>
		<stop  offset="1" style="stop-color:#FF6315"/>
	</linearGradient>
	<path style="fill:url(#SVGID_19_);" d="M258.263,245.904c2.742-5.162,3.137-7.435,2.732-15.657
		c1.666,0.172,3.302,0.399,4.945,0.502c10.361,0.645,19.883-2.369,29.144-6.625c1.292-0.594,2.863-0.9,4.283-0.84
		c9.855,0.422,19.315-1.192,28.363-5.145c1.091-0.477,2.172-0.975,3.257-1.464c0.14,0.251,0.28,0.503,0.42,0.754
		c-9.937,6.068-19.873,12.135-29.8,18.197c2.692,1.617,14.247-3.114,30.237-11.975c-2.378,3.016-4.654,6.12-7.154,9.032
		c-6.499,7.572-13.84,14.201-23.163,18.068c-13.631,5.655-27.092,5.875-39.986-2.332c-0.396-0.252-0.806-0.487-1.174-0.775
		C259.706,247.125,259.068,246.572,258.263,245.904z"/>
	<linearGradient id="SVGID_20_" gradientUnits="userSpaceOnUse" x1="203.9101" y1="258.8751" x2="240.2781" y2="258.8751">
		<stop  offset="0" style="stop-color:#944A00"/>
		<stop  offset="0" style="stop-color:#A05605"/>
		<stop  offset="0" style="stop-color:#C27712"/>
		<stop  offset="0" style="stop-color:#DD911D"/>
		<stop  offset="0" style="stop-color:#F0A324"/>
		<stop  offset="0" style="stop-color:#FBAE29"/>
		<stop  offset="0" style="stop-color:#FFB22A"/>
		<stop  offset="0.6854" style="stop-color:#FFB22A"/>
		<stop  offset="1" style="stop-color:#FF6315"/>
	</linearGradient>
	<path style="fill:url(#SVGID_20_);" d="M222.478,234.114c-2.444,7.176-1.247,12.783,3.671,17.549
		c0.463,0.448,0.862,1.299,0.794,1.907c-1.294,11.684,3.943,20.321,12.634,27.381c0.203,0.165,0.338,0.413,0.701,0.868
		c-8.213,1.743-16.276,3.238-24.066-0.532c-9.734-4.712-14.115-14.643-11.609-26.803c1.129-5.477,3.345-10.735,5.174-16.056
		c0.233-0.677,1.028-1.448,1.711-1.636C214.908,235.852,218.376,235.092,222.478,234.114z"/>
	<linearGradient id="SVGID_21_" gradientUnits="userSpaceOnUse" x1="230.5654" y1="266.8275" x2="287.0757" y2="266.8275">
		<stop  offset="0" style="stop-color:#944A00"/>
		<stop  offset="0" style="stop-color:#A05605"/>
		<stop  offset="0" style="stop-color:#C27712"/>
		<stop  offset="0" style="stop-color:#DD911D"/>
		<stop  offset="0" style="stop-color:#F0A324"/>
		<stop  offset="0" style="stop-color:#FBAE29"/>
		<stop  offset="0" style="stop-color:#FFB22A"/>
		<stop  offset="0.6854" style="stop-color:#FFB22A"/>
		<stop  offset="1" style="stop-color:#FF6315"/>
	</linearGradient>
	<path style="fill:url(#SVGID_21_);" d="M230.565,254.831c11.484,2.236,13.089,2.034,22.254-2.946
		c2.913,3.174,5.794,6.592,8.965,9.715c7.558,7.444,11.535,9.821,25.292,15.554c-4.852,1.364-8.904,2.81-13.079,3.62
		c-12.973,2.514-24.892,0.537-34.805-8.983C234.609,267.389,231.659,261.623,230.565,254.831z"/>
	<linearGradient id="SVGID_22_" gradientUnits="userSpaceOnUse" x1="203.303" y1="233.3309" x2="253.8478" y2="233.3309">
		<stop  offset="0" style="stop-color:#944A00"/>
		<stop  offset="0" style="stop-color:#A05605"/>
		<stop  offset="0" style="stop-color:#C27712"/>
		<stop  offset="0" style="stop-color:#DD911D"/>
		<stop  offset="0" style="stop-color:#F0A324"/>
		<stop  offset="0" style="stop-color:#FBAE29"/>
		<stop  offset="0" style="stop-color:#FFB22A"/>
		<stop  offset="0.6854" style="stop-color:#FFB22A"/>
		<stop  offset="1" style="stop-color:#FF6315"/>
	</linearGradient>
	<path style="fill:url(#SVGID_22_);" d="M207.171,229.808c-1.233-2.076-2.469-4.155-3.868-6.51c7.604-2.67,15.307-5.24,23.568-5.603
		c6.481-0.284,12.783,0.32,18.626,3.51c6.867,3.749,10.04,11.775,7.455,19.069c-3.095,8.734-15.847,11.829-21.852,5.136
		c-1.319-1.47-2.189-3.82-2.277-5.809c-0.153-3.441,2.595-5.457,5.964-4.705c2.466,0.55,4.82,1.581,7.264,2.256
		c0.772,0.213,1.67-0.03,2.511-0.064c-0.298-0.858-0.341-2.002-0.934-2.531c-6.68-5.955-14.674-7.831-23.358-6.934
		C215.901,228.075,211.586,229.054,207.171,229.808z"/>
	<linearGradient id="SVGID_23_" gradientUnits="userSpaceOnUse" x1="166.9597" y1="189.957" x2="227.3351" y2="189.957">
		<stop  offset="0" style="stop-color:#944A00"/>
		<stop  offset="0" style="stop-color:#A05605"/>
		<stop  offset="0" style="stop-color:#C27712"/>
		<stop  offset="0" style="stop-color:#DD911D"/>
		<stop  offset="0" style="stop-color:#F0A324"/>
		<stop  offset="0" style="stop-color:#FBAE29"/>
		<stop  offset="0" style="stop-color:#FFB22A"/>
		<stop  offset="0.6854" style="stop-color:#FFB22A"/>
		<stop  offset="1" style="stop-color:#FF6315"/>
	</linearGradient>
	<path style="fill:url(#SVGID_23_);" d="M174.758,186.666c0.443,8.899,4.708,14.432,12.181,17.386
		c7.349,2.905,14.26,1.857,20.068-3.863c5.943-5.853,7.555-14.693,4.261-23.562c2.654-0.809,5.318-1.559,7.94-2.436
		c2.652-0.887,5.263-1.898,8.127-2.939c-0.521,10.505-4.452,19.302-11.83,26.463c-11.02,10.695-24.194,13.037-38.678,9.257
		c-2.379-0.621-4.672-2.035-6.678-3.523c-3.46-2.567-4.203-6.474-1.742-9.974C170.175,190.959,172.617,188.919,174.758,186.666z"/>
	<linearGradient id="SVGID_24_" gradientUnits="userSpaceOnUse" x1="96.082" y1="251.7821" x2="121.3217" y2="251.7821">
		<stop  offset="0" style="stop-color:#944A00"/>
		<stop  offset="0" style="stop-color:#A05605"/>
		<stop  offset="0" style="stop-color:#C27712"/>
		<stop  offset="0" style="stop-color:#DD911D"/>
		<stop  offset="0" style="stop-color:#F0A324"/>
		<stop  offset="0" style="stop-color:#FBAE29"/>
		<stop  offset="0" style="stop-color:#FFB22A"/>
		<stop  offset="0.6854" style="stop-color:#FFB22A"/>
		<stop  offset="1" style="stop-color:#FF6315"/>
	</linearGradient>
	<path style="fill:url(#SVGID_24_);" d="M121.322,241.307c-3.853,9.418-7.421,18.139-10.958,26.782
		c-7.673-8.945-10.666-20.558-14.282-32.615C104.617,237.447,113.152,239.419,121.322,241.307z"/>
	<linearGradient id="SVGID_25_" gradientUnits="userSpaceOnUse" x1="68.3734" y1="222.2655" x2="102.491" y2="222.2655">
		<stop  offset="0" style="stop-color:#944A00"/>
		<stop  offset="0" style="stop-color:#A05605"/>
		<stop  offset="0" style="stop-color:#C27712"/>
		<stop  offset="0" style="stop-color:#DD911D"/>
		<stop  offset="0" style="stop-color:#F0A324"/>
		<stop  offset="0" style="stop-color:#FBAE29"/>
		<stop  offset="0" style="stop-color:#FFB22A"/>
		<stop  offset="0.6854" style="stop-color:#FFB22A"/>
		<stop  offset="1" style="stop-color:#FF6315"/>
	</linearGradient>
	<path style="fill:url(#SVGID_25_);" d="M73.72,229.562c0.514-4.998-0.962-8.928-5.346-11.941
		c10.357-2.407,20.268-3.422,30.339-2.18c0.61,0.075,1.355,0.679,1.671,1.242c1.953,3.482,2.689,7.168,1.609,11.122
		c-0.375,1.372-0.99,1.84-2.552,1.817C91.015,229.497,82.587,229.562,73.72,229.562z"/>
	<linearGradient id="SVGID_26_" gradientUnits="userSpaceOnUse" x1="27.0615" y1="231.2707" x2="58.46" y2="231.2707">
		<stop  offset="0" style="stop-color:#944A00"/>
		<stop  offset="0" style="stop-color:#A05605"/>
		<stop  offset="0" style="stop-color:#C27712"/>
		<stop  offset="0" style="stop-color:#DD911D"/>
		<stop  offset="0" style="stop-color:#F0A324"/>
		<stop  offset="0" style="stop-color:#FBAE29"/>
		<stop  offset="0" style="stop-color:#FFB22A"/>
		<stop  offset="0.6854" style="stop-color:#FFB22A"/>
		<stop  offset="1" style="stop-color:#FF6315"/>
	</linearGradient>
	<path style="fill:url(#SVGID_26_);" d="M38.612,239.099c-5.306,0.031-8.536-2.052-10.703-5.867
		c-1.046-1.841-1.254-3.726,0.121-5.546c1.321-1.749,2.811-2.195,5.103-1.618c6.835,1.721,13.453,0.096,19.851-2.249
		c2.117-0.776,3.166-0.395,3.937,1.5c0.458,1.125,1.005,2.241,1.261,3.416c0.772,3.531,0.017,4.709-3.358,5.796
		c-3.924,1.264-7.807,2.662-11.757,3.836C41.377,238.87,39.561,238.952,38.612,239.099z"/>
	<linearGradient id="SVGID_27_" gradientUnits="userSpaceOnUse" x1="117.3511" y1="231.7391" x2="148.0616" y2="231.7391">
		<stop  offset="0" style="stop-color:#944A00"/>
		<stop  offset="0" style="stop-color:#A05605"/>
		<stop  offset="0" style="stop-color:#C27712"/>
		<stop  offset="0" style="stop-color:#DD911D"/>
		<stop  offset="0" style="stop-color:#F0A324"/>
		<stop  offset="0" style="stop-color:#FBAE29"/>
		<stop  offset="0" style="stop-color:#FFB22A"/>
		<stop  offset="0.6854" style="stop-color:#FFB22A"/>
		<stop  offset="1" style="stop-color:#FF6315"/>
	</linearGradient>
	<path style="fill:url(#SVGID_27_);" d="M117.351,219.86c5.735,3.214,11.303,6.507,17.035,9.482
		c3.399,1.764,6.97,3.322,10.632,4.407c2.261,0.67,3.144,1.704,3.034,3.843c-0.093,1.826-0.283,3.647-0.474,6.026
		c-10.532-3.636-20.515-7.082-30.227-10.435C117.351,228.925,117.351,224.71,117.351,219.86z"/>
	<linearGradient id="SVGID_28_" gradientUnits="userSpaceOnUse" x1="133.3243" y1="262.0533" x2="152.524" y2="262.0533">
		<stop  offset="0" style="stop-color:#944A00"/>
		<stop  offset="0" style="stop-color:#A05605"/>
		<stop  offset="0" style="stop-color:#C27712"/>
		<stop  offset="0" style="stop-color:#DD911D"/>
		<stop  offset="0" style="stop-color:#F0A324"/>
		<stop  offset="0" style="stop-color:#FBAE29"/>
		<stop  offset="0" style="stop-color:#FFB22A"/>
		<stop  offset="0.6854" style="stop-color:#FFB22A"/>
		<stop  offset="1" style="stop-color:#FF6315"/>
	</linearGradient>
	<path style="fill:url(#SVGID_28_);" d="M144.45,277.172c-6.816-8.752-9.53-19.333-11.126-30.237
		c6.617,1.943,13.151,3.863,19.2,5.639C149.901,260.566,147.169,268.891,144.45,277.172z"/>
	<linearGradient id="SVGID_29_" gradientUnits="userSpaceOnUse" x1="63.8016" y1="250.0489" x2="82.9187" y2="250.0489">
		<stop  offset="0" style="stop-color:#944A00"/>
		<stop  offset="0" style="stop-color:#A05605"/>
		<stop  offset="0" style="stop-color:#C27712"/>
		<stop  offset="0" style="stop-color:#DD911D"/>
		<stop  offset="0" style="stop-color:#F0A324"/>
		<stop  offset="0" style="stop-color:#FBAE29"/>
		<stop  offset="0" style="stop-color:#FFB22A"/>
		<stop  offset="0.6854" style="stop-color:#FFB22A"/>
		<stop  offset="1" style="stop-color:#FF6315"/>
	</linearGradient>
	<path style="fill:url(#SVGID_29_);" d="M64.479,238.235c6.265-0.944,12.53-1.888,18.44-2.778
		c-1.059,9.676-2.077,18.969-3.195,29.183c-5.491-8.789-10.706-17.136-15.922-25.484C64.027,238.849,64.253,238.542,64.479,238.235z
		"/>
	<linearGradient id="SVGID_30_" gradientUnits="userSpaceOnUse" x1="162.8594" y1="236.6923" x2="194.0731" y2="236.6923">
		<stop  offset="0" style="stop-color:#944A00"/>
		<stop  offset="0" style="stop-color:#A05605"/>
		<stop  offset="0" style="stop-color:#C27712"/>
		<stop  offset="0" style="stop-color:#DD911D"/>
		<stop  offset="0" style="stop-color:#F0A324"/>
		<stop  offset="0" style="stop-color:#FBAE29"/>
		<stop  offset="0" style="stop-color:#FFB22A"/>
		<stop  offset="0.6854" style="stop-color:#FFB22A"/>
		<stop  offset="1" style="stop-color:#FF6315"/>
	</linearGradient>
	<path style="fill:url(#SVGID_30_);" d="M191.834,228.383c0.641,1.926,1.399,4.206,2.239,6.733
		c-9.725,4.156-19.099,8.626-29.358,9.885c-0.698-3.423-1.323-6.488-1.856-9.1C172.056,233.515,181.696,231.014,191.834,228.383z"/>
	<linearGradient id="SVGID_31_" gradientUnits="userSpaceOnUse" x1="179.548" y1="188.8452" x2="207.3016" y2="188.8452">
		<stop  offset="0" style="stop-color:#944A00"/>
		<stop  offset="0" style="stop-color:#A05605"/>
		<stop  offset="0" style="stop-color:#C27712"/>
		<stop  offset="0" style="stop-color:#DD911D"/>
		<stop  offset="0" style="stop-color:#F0A324"/>
		<stop  offset="0" style="stop-color:#FBAE29"/>
		<stop  offset="0" style="stop-color:#FFB22A"/>
		<stop  offset="0.6854" style="stop-color:#FFB22A"/>
		<stop  offset="1" style="stop-color:#FF6315"/>
	</linearGradient>
	<path style="fill:url(#SVGID_31_);" d="M205.679,177.497c2.003,6.014,2.738,11.676-1.28,16.694
		c-7.325,9.151-18.479,7.609-23.236-3.064c-0.305-0.685-0.585-1.386-0.807-2.101c-1.429-4.601-1.362-4.711,3.532-6.153
		c-0.068,4.583,1.676,8.136,6.172,9.66c3.707,1.257,7.107,0.305,9.812-2.529c3.231-3.384,3.146-7.217,0.872-11.51
		C202.461,178.148,203.961,177.844,205.679,177.497z"/>
	<linearGradient id="SVGID_32_" gradientUnits="userSpaceOnUse" x1="169.4256" y1="260.3271" x2="187.1348" y2="260.3271">
		<stop  offset="0" style="stop-color:#944A00"/>
		<stop  offset="0" style="stop-color:#A05605"/>
		<stop  offset="0" style="stop-color:#C27712"/>
		<stop  offset="0" style="stop-color:#DD911D"/>
		<stop  offset="0" style="stop-color:#F0A324"/>
		<stop  offset="0" style="stop-color:#FBAE29"/>
		<stop  offset="0" style="stop-color:#FFB22A"/>
		<stop  offset="0.6854" style="stop-color:#FFB22A"/>
		<stop  offset="1" style="stop-color:#FF6315"/>
	</linearGradient>
	<path style="fill:url(#SVGID_32_);" d="M181.355,274.212c-5.815-6.18-8.583-14.315-11.929-21.916
		c6.129-2.026,12.147-4.015,17.709-5.854C185.25,255.497,183.296,264.885,181.355,274.212z"/>
	<linearGradient id="SVGID_33_" gradientUnits="userSpaceOnUse" x1="35.9897" y1="255.5011" x2="52.2146" y2="255.5011">
		<stop  offset="0" style="stop-color:#944A00"/>
		<stop  offset="0" style="stop-color:#A05605"/>
		<stop  offset="0" style="stop-color:#C27712"/>
		<stop  offset="0" style="stop-color:#DD911D"/>
		<stop  offset="0" style="stop-color:#F0A324"/>
		<stop  offset="0" style="stop-color:#FBAE29"/>
		<stop  offset="0" style="stop-color:#FFB22A"/>
		<stop  offset="0.6854" style="stop-color:#FFB22A"/>
		<stop  offset="1" style="stop-color:#FF6315"/>
	</linearGradient>
	<path style="fill:url(#SVGID_33_);" d="M50.313,267.814c-6.203-6.591-10.697-14.163-14.323-21.799
		c5.521-0.962,10.993-1.915,16.225-2.827c-0.585,3.674-1.5,7.784-1.83,11.94C50.056,259.277,50.313,263.473,50.313,267.814z"/>
	<linearGradient id="SVGID_34_" gradientUnits="userSpaceOnUse" x1="59.3323" y1="225.0438" x2="69.8684" y2="225.0438">
		<stop  offset="0" style="stop-color:#944A00"/>
		<stop  offset="0" style="stop-color:#A05605"/>
		<stop  offset="0" style="stop-color:#C27712"/>
		<stop  offset="0" style="stop-color:#DD911D"/>
		<stop  offset="0" style="stop-color:#F0A324"/>
		<stop  offset="0" style="stop-color:#FBAE29"/>
		<stop  offset="0" style="stop-color:#FFB22A"/>
		<stop  offset="0.6854" style="stop-color:#FFB22A"/>
		<stop  offset="1" style="stop-color:#FF6315"/>
	</linearGradient>
	<path style="fill:url(#SVGID_34_);" d="M59.332,221.138c2.277,0.014,3.858-4.155,6.615-2.053c2.904,2.213,4.561,5.466,3.689,9.474
		c-0.796,3.658-4.177,1.955-5.812,3.036C62.345,228.153,60.899,224.787,59.332,221.138z"/>
	<linearGradient id="SVGID_35_" gradientUnits="userSpaceOnUse" x1="104.2062" y1="224.024" x2="113.0236" y2="224.024">
		<stop  offset="0" style="stop-color:#944A00"/>
		<stop  offset="0" style="stop-color:#A05605"/>
		<stop  offset="0" style="stop-color:#C27712"/>
		<stop  offset="0" style="stop-color:#DD911D"/>
		<stop  offset="0" style="stop-color:#F0A324"/>
		<stop  offset="0" style="stop-color:#FBAE29"/>
		<stop  offset="0" style="stop-color:#FFB22A"/>
		<stop  offset="0.6854" style="stop-color:#FFB22A"/>
		<stop  offset="1" style="stop-color:#FF6315"/>
	</linearGradient>
	<path style="fill:url(#SVGID_35_);" d="M111.546,231.743c-1.951-0.393-3.662-0.737-5.515-1.11c1.263-4.954,1.068-9.53-1.825-14.327
		c2.578,0.598,4.731,0.973,6.784,1.65c0.601,0.198,1.123,1.195,1.334,1.926C113.458,223.801,113.223,227.668,111.546,231.743z"/>
	<linearGradient id="SVGID_36_" gradientUnits="userSpaceOnUse" x1="187.4223" y1="184.3236" x2="197.9351" y2="184.3236">
		<stop  offset="0" style="stop-color:#944A00"/>
		<stop  offset="0" style="stop-color:#A05605"/>
		<stop  offset="0" style="stop-color:#C27712"/>
		<stop  offset="0" style="stop-color:#DD911D"/>
		<stop  offset="0" style="stop-color:#F0A324"/>
		<stop  offset="0" style="stop-color:#FBAE29"/>
		<stop  offset="0" style="stop-color:#FFB22A"/>
		<stop  offset="0.6854" style="stop-color:#FFB22A"/>
		<stop  offset="1" style="stop-color:#FF6315"/>
	</linearGradient>
	<path style="fill:url(#SVGID_36_);" d="M192.861,188.771c-3.107,0.085-5.926-3.185-5.367-6.225c0.034-0.183,0.021-0.507,0.099-0.53
		c2.709-0.795,5.427-2.147,8.141-2.142c2.039,0.004,2.35,2.587,2.149,4.536C197.629,186.885,195.468,188.7,192.861,188.771z"/>
	<linearGradient id="SVGID_37_" gradientUnits="userSpaceOnUse" x1="152.042" y1="240.2432" x2="159.6317" y2="240.2432">
		<stop  offset="0" style="stop-color:#944A00"/>
		<stop  offset="0" style="stop-color:#A05605"/>
		<stop  offset="0" style="stop-color:#C27712"/>
		<stop  offset="0" style="stop-color:#DD911D"/>
		<stop  offset="0" style="stop-color:#F0A324"/>
		<stop  offset="0" style="stop-color:#FBAE29"/>
		<stop  offset="0" style="stop-color:#FFB22A"/>
		<stop  offset="0.6854" style="stop-color:#FFB22A"/>
		<stop  offset="1" style="stop-color:#FF6315"/>
	</linearGradient>
	<path style="fill:url(#SVGID_37_);" d="M152.675,244.635c-0.224-3.291-0.425-6.245-0.633-9.312c1.68,0,3.436-0.057,5.184,0.041
		c0.429,0.024,1.119,0.489,1.198,0.857c0.486,2.268,0.944,4.555,1.187,6.859c0.174,1.653-0.741,2.335-2.456,2.028
		C155.696,244.847,154.202,244.788,152.675,244.635z"/>
	<linearGradient id="SVGID_38_" gradientUnits="userSpaceOnUse" x1="194.2894" y1="228.8854" x2="202.6895" y2="228.8854">
		<stop  offset="0" style="stop-color:#944A00"/>
		<stop  offset="0" style="stop-color:#A05605"/>
		<stop  offset="0" style="stop-color:#C27712"/>
		<stop  offset="0" style="stop-color:#DD911D"/>
		<stop  offset="0" style="stop-color:#F0A324"/>
		<stop  offset="0" style="stop-color:#FBAE29"/>
		<stop  offset="0" style="stop-color:#FFB22A"/>
		<stop  offset="0.6854" style="stop-color:#FFB22A"/>
		<stop  offset="1" style="stop-color:#FF6315"/>
	</linearGradient>
	<path style="fill:url(#SVGID_38_);" d="M194.289,226.731c1.852-0.738,3.646-1.453,5.388-2.148c4.36,5.329,4.064,7.031-1.396,8.605
		C197.022,231.15,195.754,229.1,194.289,226.731z"/>
</g>
<linearGradient id="SVGID_39_" gradientUnits="userSpaceOnUse" x1="594.4068" y1="204.2214" x2="638.5068" y2="204.2214">
	<stop  offset="0" style="stop-color:#944A00"/>
	<stop  offset="0.0249" style="stop-color:#A05605"/>
	<stop  offset="0.1045" style="stop-color:#C27712"/>
	<stop  offset="0.1857" style="stop-color:#DD911D"/>
	<stop  offset="0.2683" style="stop-color:#F0A324"/>
	<stop  offset="0.3532" style="stop-color:#FBAE29"/>
	<stop  offset="0.4435" style="stop-color:#FFB22A"/>
	<stop  offset="1" style="stop-color:#FF6315"/>
</linearGradient>
<path style="fill:url(#SVGID_39_);" d="M594.407,222.416c17.037-13.597,4.009-32.071,0-36.08
	c16.371-2.612,31.83,11.989,44.098,20.044c0.006,1.169,0,0,0,2.166C624.216,209.627,610.929,221.165,594.407,222.416z"/>
</svg>
