<?xml version="1.0" encoding="iso-8859-1"?>
<!-- Generator: Adobe Illustrator 22.0.1, SVG Export Plug-In . SVG Version: 6.00 Build 0)  -->
<svg version="1.1" id="Capa_1" xmlns="http://www.w3.org/2000/svg" xmlns:xlink="http://www.w3.org/1999/xlink" x="0px" y="0px"
	 viewBox="0 0 1024 768" style="enable-background:new 0 0 1024 768;" xml:space="preserve">
<radialGradient id="SVGID_1_" cx="375.036" cy="554.8895" r="19.0397" gradientTransform="matrix(1 0 0 -1 0 770)" gradientUnits="userSpaceOnUse">
	<stop  offset="0" style="stop-color:#944A00"/>
	<stop  offset="0" style="stop-color:#A05605"/>
	<stop  offset="0" style="stop-color:#C27712"/>
	<stop  offset="0" style="stop-color:#DD911D"/>
	<stop  offset="0" style="stop-color:#F0A324"/>
	<stop  offset="0" style="stop-color:#FBAE29"/>
	<stop  offset="0" style="stop-color:#FFB22A"/>
	<stop  offset="0.2593" style="stop-color:#FFB22A"/>
	<stop  offset="1" style="stop-color:#E9AE00"/>
</radialGradient>
<path style="fill:url(#SVGID_1_);" d="M375.046,234.156c-10.522,0-19.044-8.527-19.044-19.044c0-10.52,8.523-19.047,19.044-19.047
	c10.517,0,19.024,8.527,19.024,19.047C394.07,225.629,385.563,234.156,375.046,234.156z"/>
<radialGradient id="SVGID_2_" cx="465.1795" cy="533.1495" r="19.0475" gradientTransform="matrix(1 0 0 -1 0 770)" gradientUnits="userSpaceOnUse">
	<stop  offset="0" style="stop-color:#944A00"/>
	<stop  offset="0" style="stop-color:#A05605"/>
	<stop  offset="0" style="stop-color:#C27712"/>
	<stop  offset="0" style="stop-color:#DD911D"/>
	<stop  offset="0" style="stop-color:#F0A324"/>
	<stop  offset="0" style="stop-color:#FBAE29"/>
	<stop  offset="0" style="stop-color:#FFB22A"/>
	<stop  offset="0.2593" style="stop-color:#FFB22A"/>
	<stop  offset="1" style="stop-color:#E9AE00"/>
</radialGradient>
<path style="fill:url(#SVGID_2_);" d="M465.189,255.896c-10.527,0-19.059-8.527-19.059-19.044c0-10.52,8.532-19.047,19.059-19.047
	c10.497,0,19.04,8.527,19.04,19.047C484.229,247.369,475.686,255.896,465.189,255.896z"/>
<radialGradient id="SVGID_3_" cx="555.323" cy="562.5675" r="19.0423" gradientTransform="matrix(1 0 0 -1 0 770)" gradientUnits="userSpaceOnUse">
	<stop  offset="0" style="stop-color:#944A00"/>
	<stop  offset="0" style="stop-color:#A05605"/>
	<stop  offset="0" style="stop-color:#C27712"/>
	<stop  offset="0" style="stop-color:#DD911D"/>
	<stop  offset="0" style="stop-color:#F0A324"/>
	<stop  offset="0" style="stop-color:#FBAE29"/>
	<stop  offset="0" style="stop-color:#FFB22A"/>
	<stop  offset="0.2593" style="stop-color:#FFB22A"/>
	<stop  offset="1" style="stop-color:#E9AE00"/>
</radialGradient>
<path style="fill:url(#SVGID_3_);" d="M555.308,226.478c-10.487,0-19.024-8.527-19.024-19.044c0-10.52,8.537-19.047,19.024-19.047
	c10.537,0,19.054,8.527,19.054,19.047C574.362,217.951,565.846,226.478,555.308,226.478z"/>
<g>
	
		<linearGradient id="SVGID_4_" gradientUnits="userSpaceOnUse" x1="32.581" y1="380.619" x2="146.038" y2="380.619" gradientTransform="matrix(1 0 0 -1 0 770)">
		<stop  offset="0" style="stop-color:#105E90"/>
		<stop  offset="0.2354" style="stop-color:#125F91"/>
		<stop  offset="0.3202" style="stop-color:#196395"/>
		<stop  offset="0.3807" style="stop-color:#24699C"/>
		<stop  offset="0.4292" style="stop-color:#3572A6"/>
		<stop  offset="0.4706" style="stop-color:#4B7EB3"/>
		<stop  offset="0.474" style="stop-color:#4D7FB4"/>
		<stop  offset="0.6122" style="stop-color:#3974A8"/>
		<stop  offset="0.86" style="stop-color:#1B6497"/>
		<stop  offset="1" style="stop-color:#105E90"/>
	</linearGradient>
	<path style="fill:url(#SVGID_4_);" d="M62.528,406.757l13.595-17.374l31.993-34.753h35.162l-45.384,49.571l48.144,64.702h-35.98
		l-32.913-46.302l-13.389,10.731v35.571H32.581V309.859h31.174v70.934l-1.636,25.964H62.528z"/>
	
		<linearGradient id="SVGID_5_" gradientUnits="userSpaceOnUse" x1="161.777" y1="357.212" x2="267.259" y2="357.212" gradientTransform="matrix(1 0 0 -1 0 770)">
		<stop  offset="0" style="stop-color:#105E90"/>
		<stop  offset="0.2354" style="stop-color:#125F91"/>
		<stop  offset="0.3202" style="stop-color:#196395"/>
		<stop  offset="0.3807" style="stop-color:#24699C"/>
		<stop  offset="0.4292" style="stop-color:#3572A6"/>
		<stop  offset="0.4706" style="stop-color:#4B7EB3"/>
		<stop  offset="0.474" style="stop-color:#4D7FB4"/>
		<stop  offset="0.6122" style="stop-color:#3974A8"/>
		<stop  offset="0.86" style="stop-color:#1B6497"/>
		<stop  offset="1" style="stop-color:#105E90"/>
	</linearGradient>
	<path style="fill:url(#SVGID_5_);" d="M243.344,468.902l-4.191-14.618h-1.636c-3.339,5.316-8.075,9.423-14.207,12.32
		c-6.133,2.893-13.119,4.342-20.953,4.342c-13.426,0-23.544-3.594-30.358-10.782c-6.814-7.188-10.222-17.531-10.222-31.022V354.63
		h31.176v66.745c0,8.245,1.464,14.426,4.394,18.549c2.928,4.126,7.597,6.186,14.004,6.186c8.72,0,15.025-2.913,18.909-8.738
		c3.884-5.829,5.825-15.487,5.825-28.978V354.63h31.174v114.272H243.344z"/>
	
		<linearGradient id="SVGID_6_" gradientUnits="userSpaceOnUse" x1="299.97" y1="380.619" x2="413.427" y2="380.619" gradientTransform="matrix(1 0 0 -1 0 770)">
		<stop  offset="0" style="stop-color:#105E90"/>
		<stop  offset="0.2354" style="stop-color:#125F91"/>
		<stop  offset="0.3202" style="stop-color:#196395"/>
		<stop  offset="0.3807" style="stop-color:#24699C"/>
		<stop  offset="0.4292" style="stop-color:#3572A6"/>
		<stop  offset="0.4706" style="stop-color:#4B7EB3"/>
		<stop  offset="0.474" style="stop-color:#4D7FB4"/>
		<stop  offset="0.6122" style="stop-color:#3974A8"/>
		<stop  offset="0.86" style="stop-color:#1B6497"/>
		<stop  offset="1" style="stop-color:#105E90"/>
	</linearGradient>
	<path style="fill:url(#SVGID_6_);" d="M329.917,406.757l13.595-17.374l31.993-34.753h35.162l-45.384,49.571l48.144,64.702h-35.98
		l-32.913-46.302l-13.389,10.731v35.571H299.97V309.859h31.174v70.934l-1.636,25.964H329.917z"/>
	
		<linearGradient id="SVGID_7_" gradientUnits="userSpaceOnUse" x1="429.164" y1="357.212" x2="534.647" y2="357.212" gradientTransform="matrix(1 0 0 -1 0 770)">
		<stop  offset="0" style="stop-color:#105E90"/>
		<stop  offset="0.2354" style="stop-color:#125F91"/>
		<stop  offset="0.3202" style="stop-color:#196395"/>
		<stop  offset="0.3807" style="stop-color:#24699C"/>
		<stop  offset="0.4292" style="stop-color:#3572A6"/>
		<stop  offset="0.4706" style="stop-color:#4B7EB3"/>
		<stop  offset="0.474" style="stop-color:#4D7FB4"/>
		<stop  offset="0.6122" style="stop-color:#3974A8"/>
		<stop  offset="0.86" style="stop-color:#1B6497"/>
		<stop  offset="1" style="stop-color:#105E90"/>
	</linearGradient>
	<path style="fill:url(#SVGID_7_);" d="M510.731,468.902l-4.191-14.618h-1.636c-3.339,5.316-8.075,9.423-14.207,12.32
		c-6.133,2.893-13.119,4.342-20.953,4.342c-13.426,0-23.544-3.594-30.358-10.782c-6.814-7.188-10.222-17.531-10.222-31.022V354.63
		h31.176v66.745c0,8.245,1.464,14.426,4.395,18.549c2.928,4.126,7.597,6.186,14.004,6.186c8.72,0,15.025-2.913,18.909-8.738
		c3.884-5.829,5.825-15.487,5.825-28.978V354.63h31.174v114.272H510.731z"/>
	
		<linearGradient id="SVGID_8_" gradientUnits="userSpaceOnUse" x1="567.359" y1="380.6195" x2="598.533" y2="380.6195" gradientTransform="matrix(1 0 0 -1 0 770)">
		<stop  offset="0" style="stop-color:#105E90"/>
		<stop  offset="0.2354" style="stop-color:#125F91"/>
		<stop  offset="0.3202" style="stop-color:#196395"/>
		<stop  offset="0.3807" style="stop-color:#24699C"/>
		<stop  offset="0.4292" style="stop-color:#3572A6"/>
		<stop  offset="0.4706" style="stop-color:#4B7EB3"/>
		<stop  offset="0.474" style="stop-color:#4D7FB4"/>
		<stop  offset="0.6122" style="stop-color:#3974A8"/>
		<stop  offset="0.86" style="stop-color:#1B6497"/>
		<stop  offset="1" style="stop-color:#105E90"/>
	</linearGradient>
	<path style="fill:url(#SVGID_8_);" d="M598.533,468.902h-31.174V309.859h31.174V468.902z"/>
	
		<linearGradient id="SVGID_9_" gradientUnits="userSpaceOnUse" x1="631.24" y1="380.619" x2="744.697" y2="380.619" gradientTransform="matrix(1 0 0 -1 0 770)">
		<stop  offset="0" style="stop-color:#105E90"/>
		<stop  offset="0.2354" style="stop-color:#125F91"/>
		<stop  offset="0.3202" style="stop-color:#196395"/>
		<stop  offset="0.3807" style="stop-color:#24699C"/>
		<stop  offset="0.4292" style="stop-color:#3572A6"/>
		<stop  offset="0.4706" style="stop-color:#4B7EB3"/>
		<stop  offset="0.474" style="stop-color:#4D7FB4"/>
		<stop  offset="0.6122" style="stop-color:#3974A8"/>
		<stop  offset="0.86" style="stop-color:#1B6497"/>
		<stop  offset="1" style="stop-color:#105E90"/>
	</linearGradient>
	<path style="fill:url(#SVGID_9_);" d="M661.187,406.757l13.595-17.374l31.993-34.753h35.162l-45.384,49.571l48.144,64.702h-35.98
		l-32.913-46.302l-13.389,10.731v35.571H631.24V309.859h31.174v70.934l-1.636,25.964H661.187z"/>
	
		<linearGradient id="SVGID_10_" gradientUnits="userSpaceOnUse" x1="753.486" y1="380.261" x2="855.39" y2="380.261" gradientTransform="matrix(1 0 0 -1 0 770)">
		<stop  offset="0" style="stop-color:#105E90"/>
		<stop  offset="0.2354" style="stop-color:#125F91"/>
		<stop  offset="0.3202" style="stop-color:#196395"/>
		<stop  offset="0.3807" style="stop-color:#24699C"/>
		<stop  offset="0.4292" style="stop-color:#3572A6"/>
		<stop  offset="0.4706" style="stop-color:#4B7EB3"/>
		<stop  offset="0.474" style="stop-color:#4D7FB4"/>
		<stop  offset="0.6122" style="stop-color:#3974A8"/>
		<stop  offset="0.86" style="stop-color:#1B6497"/>
		<stop  offset="1" style="stop-color:#105E90"/>
	</linearGradient>
	<path style="fill:url(#SVGID_10_);" d="M833.621,468.902l-6.031-15.534h-0.818c-5.248,6.608-10.647,11.189-16.2,13.745
		c-5.555,2.556-12.794,3.833-21.72,3.833c-10.971,0-19.61-3.132-25.911-9.404c-6.305-6.268-9.455-15.194-9.455-26.778
		c0-12.128,4.242-21.074,12.725-26.833c8.484-5.755,21.276-8.942,38.38-9.556l19.829-0.615v-5.007
		c0-11.584-5.927-17.374-17.784-17.374c-9.133,0-19.866,2.76-32.198,8.276l-10.324-21.054c13.15-6.882,27.733-10.324,43.747-10.324
		c15.333,0,27.087,3.339,35.264,10.018s12.265,16.83,12.265,30.458v76.149L833.621,468.902L833.621,468.902z M824.421,415.957
		l-12.06,0.407c-9.063,0.274-15.81,1.91-20.238,4.905c-4.432,3.003-6.644,7.564-6.644,13.698c0,8.789,5.04,13.185,15.127,13.185
		c7.221,0,12.996-2.079,17.326-6.236c4.326-4.154,6.489-9.674,6.489-16.556L824.421,415.957L824.421,415.957z M789.772,342.055
		v-2.76c11.719-13.628,19.727-23.881,24.02-30.763h34.956v2.145c-3.545,3.543-9.592,8.809-18.144,15.793
		s-15.247,12.179-20.083,15.585L789.772,342.055L789.772,342.055z"/>
	
		<linearGradient id="SVGID_11_" gradientUnits="userSpaceOnUse" x1="887.4869" y1="359.309" x2="992.968" y2="359.309" gradientTransform="matrix(1 0 0 -1 0 770)">
		<stop  offset="0" style="stop-color:#105E90"/>
		<stop  offset="0.2354" style="stop-color:#125F91"/>
		<stop  offset="0.3202" style="stop-color:#196395"/>
		<stop  offset="0.3807" style="stop-color:#24699C"/>
		<stop  offset="0.4292" style="stop-color:#3572A6"/>
		<stop  offset="0.4706" style="stop-color:#4B7EB3"/>
		<stop  offset="0.474" style="stop-color:#4D7FB4"/>
		<stop  offset="0.6122" style="stop-color:#3974A8"/>
		<stop  offset="0.86" style="stop-color:#1B6497"/>
		<stop  offset="1" style="stop-color:#105E90"/>
	</linearGradient>
	<path style="fill:url(#SVGID_11_);" d="M992.968,468.902h-31.171v-66.745c0-8.245-1.468-14.426-4.4-18.553
		c-2.928-4.118-7.595-6.182-14-6.182c-8.722,0-15.025,2.913-18.909,8.738s-5.825,15.487-5.825,28.978v53.763h-31.176V354.63h23.816
		l4.189,14.614h1.738c3.476-5.52,8.26-9.693,14.36-12.52s13.033-4.244,20.804-4.244c13.287,0,23.368,3.598,30.254,10.786
		c6.879,7.188,10.32,17.562,10.32,31.124L992.968,468.902L992.968,468.902z"/>
</g>
<g>
	
		<linearGradient id="SVGID_12_" gradientUnits="userSpaceOnUse" x1="646.459" y1="522.407" x2="737.595" y2="522.407" gradientTransform="matrix(1 0 0 -1 0 770)">
		<stop  offset="0" style="stop-color:#599EC9"/>
		<stop  offset="0.085" style="stop-color:#4D93BF"/>
		<stop  offset="0.3033" style="stop-color:#327CAB"/>
		<stop  offset="0.5266" style="stop-color:#1F6B9C"/>
		<stop  offset="0.7558" style="stop-color:#146193"/>
		<stop  offset="1" style="stop-color:#105E90"/>
	</linearGradient>
	<path style="fill:url(#SVGID_12_);" d="M731.985,293.16c-3.108,0-5.623-2.513-5.623-5.614v-54.743
		c0-10.777-8.768-19.545-19.549-19.545h-54.736c-3.104,0-5.618-2.517-5.618-5.618c0-3.099,2.515-5.614,5.618-5.614h54.736
		c16.979,0,30.782,13.809,30.782,30.777v54.743C737.594,290.647,735.084,293.16,731.985,293.16z"/>
</g>
<g>
	
		<linearGradient id="SVGID_13_" gradientUnits="userSpaceOnUse" x1="277.191" y1="158.75" x2="368.328" y2="158.75" gradientTransform="matrix(1 0 0 -1 0 770)">
		<stop  offset="0" style="stop-color:#599EC9"/>
		<stop  offset="0.085" style="stop-color:#4D93BF"/>
		<stop  offset="0.3033" style="stop-color:#327CAB"/>
		<stop  offset="0.5266" style="stop-color:#1F6B9C"/>
		<stop  offset="0.7558" style="stop-color:#146193"/>
		<stop  offset="1" style="stop-color:#105E90"/>
	</linearGradient>
	<path style="fill:url(#SVGID_13_);" d="M362.709,656.817h-54.741c-16.97,0-30.777-13.807-30.777-30.78v-54.74
		c0-3.106,2.515-5.614,5.614-5.614s5.614,2.508,5.614,5.614v54.74c0,10.78,8.773,19.547,19.549,19.547h54.741
		c3.108,0,5.619,2.51,5.619,5.616C368.328,654.305,365.817,656.817,362.709,656.817z"/>
</g>
<g>
	
		<linearGradient id="SVGID_14_" gradientUnits="userSpaceOnUse" x1="646.459" y1="158.7495" x2="737.594" y2="158.7495" gradientTransform="matrix(1 0 0 -1 0 770)">
		<stop  offset="0" style="stop-color:#599EC9"/>
		<stop  offset="0.085" style="stop-color:#4D93BF"/>
		<stop  offset="0.3033" style="stop-color:#327CAB"/>
		<stop  offset="0.5266" style="stop-color:#1F6B9C"/>
		<stop  offset="0.7558" style="stop-color:#146193"/>
		<stop  offset="1" style="stop-color:#105E90"/>
	</linearGradient>
	<path style="fill:url(#SVGID_14_);" d="M706.813,656.817h-54.736c-3.104,0-5.618-2.513-5.618-5.616
		c0-3.106,2.515-5.616,5.618-5.616h54.736c10.781,0,19.549-8.768,19.549-19.547v-54.74c0-3.106,2.515-5.614,5.623-5.614
		c3.099,0,5.609,2.508,5.609,5.614v54.74C737.594,643.01,723.792,656.817,706.813,656.817z"/>
</g>
<rect x="39.666" y="491.805" style="fill:none;" width="946.217" height="42.489"/>
<g style="enable-background:new    ;">
	<path style="fill:#5E5D5C;" d="M30.17,525.203v-4.205c0.481,0.425,1.058,0.807,1.731,1.147c0.672,0.34,1.38,0.627,2.124,0.86
		c0.744,0.233,1.49,0.415,2.241,0.541c0.75,0.128,1.444,0.191,2.081,0.191c2.194,0,3.833-0.406,4.917-1.221
		c1.083-0.814,1.624-1.985,1.624-3.514c0-0.821-0.18-1.536-0.541-2.145c-0.361-0.608-0.86-1.164-1.497-1.666
		c-0.637-0.503-1.391-0.984-2.261-1.445c-0.871-0.459-1.809-0.945-2.814-1.455c-1.062-0.538-2.053-1.083-2.973-1.635
		c-0.921-0.552-1.72-1.161-2.4-1.826c-0.679-0.666-1.214-1.419-1.603-2.262c-0.39-0.842-0.584-1.83-0.584-2.962
		c0-1.388,0.304-2.595,0.913-3.621c0.609-1.026,1.409-1.872,2.4-2.537c0.991-0.666,2.12-1.161,3.387-1.487
		c1.267-0.325,2.559-0.488,3.876-0.488c3.002,0,5.189,0.361,6.563,1.084v4.014c-1.798-1.246-4.106-1.87-6.924-1.87
		c-0.779,0-1.558,0.082-2.336,0.244c-0.779,0.163-1.473,0.429-2.081,0.796c-0.609,0.369-1.104,0.843-1.487,1.423
		c-0.383,0.58-0.573,1.288-0.573,2.124c0,0.779,0.145,1.451,0.435,2.018s0.719,1.083,1.285,1.55c0.566,0.468,1.256,0.921,2.071,1.36
		c0.814,0.439,1.752,0.921,2.814,1.444c1.09,0.538,2.124,1.104,3.101,1.7c0.977,0.594,1.833,1.253,2.569,1.974
		c0.736,0.722,1.32,1.523,1.752,2.4c0.432,0.878,0.648,1.883,0.648,3.015c0,1.501-0.294,2.772-0.881,3.813
		c-0.588,1.041-1.381,1.887-2.379,2.537c-0.999,0.652-2.149,1.122-3.451,1.413c-1.303,0.29-2.676,0.435-4.12,0.435
		c-0.481,0-1.076-0.04-1.784-0.117c-0.708-0.079-1.43-0.191-2.166-0.34c-0.736-0.148-1.434-0.333-2.092-0.552
		C31.094,525.717,30.567,525.472,30.17,525.203z"/>
	<path style="fill:#5E5D5C;" d="M79.893,526.945c-3.214,0-5.78-1.016-7.698-3.048c-1.919-2.032-2.878-4.726-2.878-8.082
		c0-3.653,0.998-6.505,2.995-8.558c1.996-2.053,4.693-3.08,8.091-3.08c3.242,0,5.773,0.999,7.592,2.995
		c1.819,1.996,2.729,4.765,2.729,8.304c0,3.469-0.98,6.248-2.941,8.336C85.821,525.901,83.192,526.945,79.893,526.945z
		 M80.148,507.109c-2.237,0-4.007,0.762-5.309,2.284c-1.303,1.522-1.954,3.62-1.954,6.296c0,2.577,0.658,4.609,1.975,6.095
		c1.317,1.487,3.079,2.231,5.288,2.231c2.252,0,3.982-0.729,5.193-2.187c1.21-1.459,1.816-3.533,1.816-6.223
		c0-2.719-0.605-4.813-1.816-6.286C84.13,507.846,82.399,507.109,80.148,507.109z"/>
	<path style="fill:#5E5D5C;" d="M123.605,497.297c-0.679-0.382-1.451-0.573-2.315-0.573c-2.435,0-3.653,1.536-3.653,4.608v3.356
		h5.097v2.973h-5.097v18.774h-3.461v-18.774h-3.717v-2.973h3.717v-3.525c0-2.279,0.658-4.081,1.975-5.405
		c1.317-1.324,2.959-1.986,4.927-1.986c1.062,0,1.904,0.128,2.527,0.383V497.297z"/>
	<path style="fill:#5E5D5C;" d="M153.131,526.222c-0.821,0.454-1.904,0.68-3.249,0.68c-3.809,0-5.713-2.124-5.713-6.371v-12.87
		h-3.738v-2.973h3.738v-5.31l3.483-1.125v6.435h5.479v2.973h-5.479v12.254c0,1.459,0.247,2.499,0.744,3.122
		c0.495,0.622,1.316,0.934,2.463,0.934c0.878,0,1.635-0.24,2.272-0.722V526.222z"/>
	<path style="fill:#5E5D5C;" d="M201.75,504.688l-6.52,21.747h-3.611l-4.481-15.566c-0.17-0.595-0.283-1.268-0.339-2.018h-0.085
		c-0.042,0.509-0.191,1.168-0.446,1.974l-4.863,15.61h-3.483l-6.584-21.747h3.653l4.503,16.353c0.141,0.495,0.24,1.147,0.297,1.953
		h0.17c0.043-0.622,0.17-1.287,0.383-1.996l5.012-16.31h3.185l4.503,16.395c0.141,0.524,0.247,1.175,0.318,1.954h0.17
		c0.028-0.552,0.149-1.204,0.361-1.954l4.417-16.395H201.75z"/>
	<path style="fill:#5E5D5C;" d="M237.923,526.435h-3.483v-3.398h-0.085c-1.515,2.604-3.745,3.908-6.69,3.908
		c-2.166,0-3.862-0.574-5.086-1.72c-1.225-1.147-1.837-2.668-1.837-4.566c0-4.063,2.393-6.428,7.179-7.094l6.519-0.913
		c0-3.695-1.494-5.543-4.481-5.543c-2.62,0-4.984,0.893-7.093,2.676v-3.567c2.138-1.359,4.601-2.039,7.39-2.039
		c5.111,0,7.667,2.705,7.667,8.113V526.435z M234.44,515.435l-5.245,0.722c-1.614,0.226-2.832,0.626-3.653,1.2
		c-0.821,0.574-1.232,1.59-1.232,3.048c0,1.062,0.379,1.929,1.136,2.601c0.757,0.673,1.766,1.009,3.026,1.009
		c1.727,0,3.154-0.605,4.28-1.816c1.126-1.211,1.688-2.744,1.688-4.598V515.435z"/>
	<path style="fill:#5E5D5C;" d="M272.397,508.214c-0.609-0.467-1.487-0.7-2.634-0.7c-1.487,0-2.729,0.7-3.727,2.102
		c-0.998,1.402-1.497,3.313-1.497,5.734v11.086h-3.483v-21.747h3.483v4.481h0.085c0.496-1.528,1.253-2.721,2.272-3.578
		c1.02-0.856,2.159-1.285,3.419-1.285c0.906,0,1.6,0.099,2.081,0.297V508.214z"/>
	<path style="fill:#5E5D5C;" d="M310.226,516.432h-15.354c0.056,2.421,0.707,4.29,1.953,5.607c1.246,1.317,2.959,1.976,5.14,1.976
		c2.449,0,4.7-0.807,6.753-2.422v3.271c-1.911,1.388-4.438,2.081-7.582,2.081c-3.072,0-5.487-0.988-7.242-2.963
		c-1.756-1.974-2.634-4.753-2.634-8.336c0-3.384,0.959-6.141,2.878-8.272c1.918-2.131,4.3-3.197,7.146-3.197
		c2.846,0,5.047,0.921,6.605,2.761c1.557,1.84,2.336,4.396,2.336,7.667V516.432z M306.659,513.481
		c-0.015-2.01-0.499-3.575-1.455-4.694c-0.955-1.119-2.283-1.678-3.982-1.678c-1.643,0-3.037,0.588-4.184,1.763
		c-1.147,1.176-1.854,2.711-2.124,4.609H306.659z"/>
	<path style="fill:#5E5D5C;" d="M361.017,526.435v-30.454h8.41c10.732,0,16.098,4.949,16.098,14.845c0,4.701-1.49,8.478-4.47,11.33
		c-2.981,2.853-6.969,4.28-11.967,4.28H361.017z M364.585,499.209v23.998h4.545c3.992,0,7.1-1.069,9.323-3.206
		c2.223-2.138,3.335-5.168,3.335-9.09c0-7.802-4.149-11.702-12.445-11.702H364.585z"/>
	<path style="fill:#5E5D5C;" d="M425.096,516.432h-15.354c0.056,2.421,0.707,4.29,1.953,5.607c1.246,1.317,2.959,1.976,5.14,1.976
		c2.449,0,4.7-0.807,6.753-2.422v3.271c-1.911,1.388-4.438,2.081-7.582,2.081c-3.072,0-5.487-0.988-7.242-2.963
		c-1.756-1.974-2.634-4.753-2.634-8.336c0-3.384,0.959-6.141,2.878-8.272c1.918-2.131,4.3-3.197,7.146-3.197
		c2.845,0,5.047,0.921,6.605,2.761c1.557,1.84,2.336,4.396,2.336,7.667V516.432z M421.529,513.481
		c-0.015-2.01-0.499-3.575-1.455-4.694c-0.955-1.119-2.283-1.678-3.982-1.678c-1.643,0-3.037,0.588-4.184,1.763
		c-1.147,1.176-1.854,2.711-2.124,4.609H421.529z"/>
	<path style="fill:#5E5D5C;" d="M464.03,504.688l-8.665,21.747h-3.419l-8.24-21.747h3.823l5.521,15.801
		c0.411,1.161,0.666,2.173,0.765,3.037h0.085c0.141-1.09,0.368-2.074,0.679-2.953l5.777-15.885H464.03z"/>
	<path style="fill:#5E5D5C;" d="M501.818,516.432h-15.354c0.056,2.421,0.707,4.29,1.953,5.607c1.246,1.317,2.959,1.976,5.14,1.976
		c2.449,0,4.7-0.807,6.753-2.422v3.271c-1.911,1.388-4.438,2.081-7.582,2.081c-3.072,0-5.487-0.988-7.242-2.963
		c-1.756-1.974-2.634-4.753-2.634-8.336c0-3.384,0.959-6.141,2.878-8.272c1.918-2.131,4.3-3.197,7.146-3.197
		c2.846,0,5.047,0.921,6.605,2.761c1.557,1.84,2.336,4.396,2.336,7.667V516.432z M498.25,513.481
		c-0.015-2.01-0.499-3.575-1.455-4.694c-0.955-1.119-2.283-1.678-3.982-1.678c-1.643,0-3.037,0.588-4.184,1.763
		c-1.147,1.176-1.854,2.711-2.124,4.609H498.25z"/>
	<path style="fill:#5E5D5C;" d="M527.139,526.435h-3.483V494.24h3.483V526.435z"/>
	<path style="fill:#5E5D5C;" d="M559.851,526.945c-3.214,0-5.781-1.016-7.699-3.048c-1.918-2.032-2.878-4.726-2.878-8.082
		c0-3.653,0.999-6.505,2.995-8.558c1.996-2.053,4.694-3.08,8.091-3.08c3.242,0,5.773,0.999,7.593,2.995
		c1.819,1.996,2.729,4.765,2.729,8.304c0,3.469-0.98,6.248-2.942,8.336C565.779,525.901,563.149,526.945,559.851,526.945z
		 M560.105,507.109c-2.237,0-4.006,0.762-5.308,2.284c-1.303,1.522-1.954,3.62-1.954,6.296c0,2.577,0.658,4.609,1.974,6.095
		c1.317,1.487,3.08,2.231,5.288,2.231c2.252,0,3.982-0.729,5.193-2.187c1.21-1.459,1.816-3.533,1.816-6.223
		c0-2.719-0.605-4.813-1.816-6.286C564.087,507.846,562.357,507.109,560.105,507.109z"/>
	<path style="fill:#5E5D5C;" d="M596.385,523.293H596.3v13.146h-3.483v-31.75h3.483v3.822h0.085
		c1.713-2.888,4.218-4.333,7.517-4.333c2.803,0,4.991,0.974,6.562,2.92c1.572,1.947,2.358,4.556,2.358,7.826
		c0,3.639-0.885,6.551-2.655,8.739c-1.77,2.188-4.191,3.282-7.262,3.282C600.087,526.945,597.913,525.727,596.385,523.293z
		 M596.3,514.522v3.037c0,1.798,0.584,3.323,1.752,4.577c1.168,1.253,2.651,1.879,4.449,1.879c2.109,0,3.762-0.807,4.959-2.422
		c1.196-1.613,1.794-3.857,1.794-6.732c0-2.421-0.559-4.319-1.677-5.692c-1.119-1.372-2.634-2.06-4.545-2.06
		c-2.024,0-3.653,0.705-4.884,2.114C596.916,510.631,596.3,512.397,596.3,514.522z"/>
	<path style="fill:#5E5D5C;" d="M665.837,526.435h-3.483v-12.488c0-2.407-0.372-4.148-1.114-5.224
		c-0.744-1.076-1.993-1.615-3.749-1.615c-1.486,0-2.75,0.68-3.791,2.039c-1.04,1.358-1.561,2.987-1.561,4.885v12.402h-3.483v-12.912
		c0-4.275-1.649-6.414-4.949-6.414c-1.528,0-2.789,0.641-3.779,1.923c-0.992,1.282-1.487,2.948-1.487,5.001v12.402h-3.483v-21.747
		h3.483v3.441h0.085c1.542-2.634,3.793-3.951,6.753-3.951c1.486,0,2.782,0.415,3.886,1.243s1.861,1.915,2.273,3.259
		c1.614-3.001,4.02-4.502,7.22-4.502c4.785,0,7.178,2.952,7.178,8.856V526.435z"/>
	<path style="fill:#5E5D5C;" d="M706.47,516.432h-15.355c0.056,2.421,0.708,4.29,1.954,5.607c1.246,1.317,2.959,1.976,5.14,1.976
		c2.449,0,4.7-0.807,6.753-2.422v3.271c-1.912,1.388-4.438,2.081-7.582,2.081c-3.072,0-5.486-0.988-7.242-2.963
		c-1.755-1.974-2.633-4.753-2.633-8.336c0-3.384,0.959-6.141,2.877-8.272c1.918-2.131,4.301-3.197,7.147-3.197
		c2.846,0,5.047,0.921,6.605,2.761c1.557,1.84,2.335,4.396,2.335,7.667V516.432z M702.903,513.481
		c-0.014-2.01-0.499-3.575-1.455-4.694c-0.956-1.119-2.284-1.678-3.982-1.678c-1.643,0-3.037,0.588-4.183,1.763
		c-1.147,1.176-1.856,2.711-2.124,4.609H702.903z"/>
	<path style="fill:#5E5D5C;" d="M746.36,526.435h-3.483v-12.402c0-4.616-1.685-6.924-5.054-6.924c-1.741,0-3.183,0.655-4.322,1.965
		c-1.14,1.31-1.71,2.962-1.71,4.959v12.402h-3.483v-21.747h3.483v3.611h0.085c1.642-2.747,4.02-4.121,7.135-4.121
		c2.379,0,4.199,0.768,5.459,2.305c1.26,1.536,1.89,3.755,1.89,6.657V526.435z"/>
	<path style="fill:#5E5D5C;" d="M779.582,526.222c-0.821,0.454-1.905,0.68-3.25,0.68c-3.808,0-5.713-2.124-5.713-6.371v-12.87
		h-3.738v-2.973h3.738v-5.31l3.482-1.125v6.435h5.48v2.973h-5.48v12.254c0,1.459,0.249,2.499,0.744,3.122
		c0.496,0.622,1.317,0.934,2.464,0.934c0.878,0,1.635-0.24,2.273-0.722V526.222z"/>
	<path style="fill:#5E5D5C;" d="M847.766,499.209h-8.793v27.226h-3.567v-27.226h-8.771v-3.228h21.131V499.209z"/>
	<path style="fill:#5E5D5C;" d="M877.737,526.945c-3.214,0-5.781-1.016-7.699-3.048c-1.918-2.032-2.877-4.726-2.877-8.082
		c0-3.653,0.997-6.505,2.994-8.558c1.997-2.053,4.693-3.08,8.092-3.08c3.241,0,5.772,0.999,7.592,2.995
		c1.819,1.996,2.729,4.765,2.729,8.304c0,3.469-0.98,6.248-2.942,8.336C883.666,525.901,881.035,526.945,877.737,526.945z
		 M877.992,507.109c-2.237,0-4.007,0.762-5.31,2.284c-1.303,1.522-1.954,3.62-1.954,6.296c0,2.577,0.658,4.609,1.976,6.095
		c1.316,1.487,3.079,2.231,5.288,2.231c2.251,0,3.981-0.729,5.192-2.187c1.211-1.459,1.817-3.533,1.817-6.223
		c0-2.719-0.605-4.813-1.817-6.286C881.973,507.846,880.243,507.109,877.992,507.109z"/>
	<path style="fill:#5E5D5C;" d="M919.792,526.945c-3.214,0-5.781-1.016-7.699-3.048c-1.918-2.032-2.877-4.726-2.877-8.082
		c0-3.653,0.997-6.505,2.994-8.558c1.997-2.053,4.693-3.08,8.092-3.08c3.241,0,5.772,0.999,7.592,2.995
		c1.819,1.996,2.729,4.765,2.729,8.304c0,3.469-0.98,6.248-2.942,8.336C925.721,525.901,923.091,526.945,919.792,526.945z
		 M920.048,507.109c-2.237,0-4.007,0.762-5.31,2.284c-1.303,1.522-1.954,3.62-1.954,6.296c0,2.577,0.658,4.609,1.976,6.095
		c1.316,1.487,3.079,2.231,5.288,2.231c2.251,0,3.981-0.729,5.192-2.187c1.211-1.459,1.817-3.533,1.817-6.223
		c0-2.719-0.605-4.813-1.817-6.286C924.029,507.846,922.299,507.109,920.048,507.109z"/>
	<path style="fill:#5E5D5C;" d="M956.242,526.435h-3.483V494.24h3.483V526.435z"/>
	<path style="fill:#5E5D5C;" d="M978.548,525.65v-3.738c1.897,1.402,3.985,2.103,6.265,2.103c3.058,0,4.588-1.02,4.588-3.058
		c0-0.58-0.132-1.072-0.393-1.476c-0.263-0.403-0.616-0.761-1.062-1.072c-0.445-0.311-0.969-0.591-1.571-0.839
		c-0.602-0.249-1.249-0.507-1.943-0.776c-0.963-0.382-1.809-0.767-2.538-1.157c-0.729-0.389-1.338-0.828-1.826-1.316
		s-0.857-1.044-1.104-1.668c-0.247-0.622-0.372-1.352-0.372-2.187c0-1.019,0.233-1.922,0.701-2.707
		c0.467-0.786,1.089-1.445,1.869-1.976c0.778-0.531,1.667-0.93,2.665-1.2c0.999-0.269,2.029-0.404,3.09-0.404
		c1.884,0,3.568,0.326,5.054,0.977v3.525c-1.599-1.047-3.44-1.571-5.521-1.571c-0.652,0-1.238,0.075-1.763,0.224
		c-0.524,0.148-0.974,0.358-1.349,0.626c-0.375,0.269-0.666,0.591-0.871,0.966c-0.205,0.376-0.308,0.79-0.308,1.243
		c0,0.566,0.103,1.041,0.308,1.423c0.205,0.382,0.507,0.722,0.903,1.019c0.396,0.297,0.878,0.566,1.444,0.807
		c0.566,0.241,1.21,0.503,1.932,0.786c0.963,0.369,1.826,0.747,2.592,1.136c0.764,0.39,1.416,0.829,1.954,1.317
		c0.537,0.488,0.951,1.05,1.242,1.688c0.291,0.637,0.436,1.394,0.436,2.273c0,1.075-0.238,2.01-0.711,2.803
		c-0.474,0.792-1.109,1.451-1.901,1.974c-0.793,0.524-1.706,0.913-2.74,1.168c-1.034,0.255-2.117,0.383-3.25,0.383
		C982.13,526.945,980.19,526.513,978.548,525.65z"/>
</g>
<g>
	
		<linearGradient id="SVGID_15_" gradientUnits="userSpaceOnUse" x1="142.1654" y1="613.236" x2="314.6649" y2="613.236" gradientTransform="matrix(1 0 0 -1 0 770)">
		<stop  offset="0" style="stop-color:#944A00"/>
		<stop  offset="0" style="stop-color:#A05605"/>
		<stop  offset="0" style="stop-color:#C27712"/>
		<stop  offset="0" style="stop-color:#DD911D"/>
		<stop  offset="0" style="stop-color:#F0A324"/>
		<stop  offset="0" style="stop-color:#FBAE29"/>
		<stop  offset="0" style="stop-color:#FFB22A"/>
		<stop  offset="0.6854" style="stop-color:#FFB22A"/>
		<stop  offset="1" style="stop-color:#FF6315"/>
	</linearGradient>
	<path style="fill:url(#SVGID_15_);" d="M159.103,201.528c-7.209-1.319-6.934-0.591-5.934-7.706
		c1.279-9.104,7.177-15.289,14.506-20.254c9.839-6.666,21.158-8.992,32.537-11.305c7.635-1.552,15.203-3.511,22.69-5.671
		c2.731-0.788,5.142-2.685,7.699-4.075c-0.161-0.418-0.322-0.837-0.483-1.255c-3.137,0.623-6.26,1.339-9.415,1.853
		c-9.843,1.604-19.747,2.879-29.536,4.757c-10.577,2.029-20.868,5.056-29.623,11.79c-8.068,6.206-13.506,14.052-15.128,24.277
		c-0.058,0.364-0.186,0.719-0.299,1.072c-0.021,0.067-0.125,0.107-0.299,0.246c-2.582-2.874-3.539-6.337-3.652-10.075
		c-0.019-0.625,0.394-1.44,0.873-1.875c4.934-4.477,6.811-9.96,5.819-16.539c-0.129-0.855,0.314-2.008,0.873-2.724
		c7.448-9.541,17.43-14.956,29.049-17.683c13.792-3.238,27.833-3.164,41.866-3.205c12.06-0.035,24.077-0.143,35.871-3.376
		c15.558-4.265,29.252-11.793,41.145-22.624c1.785-1.626,3.229-3.626,5.171-5.156c-1.439,8.542-4.662,16.195-9.282,23.214
		c-6.772,10.287-15.545,18.596-25.856,25.285c-1.488,0.965-3.293,1.46-4.719,2.493c-0.723,0.523-0.928,1.761-1.367,2.676
		c0.85,0.022,1.756,0.25,2.539,0.034c5.792-1.595,11.66-2.994,17.313-4.995c11.515-4.075,21.4-10.899,30.451-18.997
		c0.758-0.678,1.52-1.351,2.753-1.681c-1.298,1.973-2.496,4.021-3.909,5.908c-12.774,17.063-29.269,29.439-48.733,37.795
		c-11.57,4.967-23.428,9.263-35.159,13.855c-0.242,0.095-0.516,0.111-0.865,0.182c1.521-2.888,3.071-5.631,4.436-8.462
		c3.122-6.475,4.26-13.388,4.515-20.522c0.042-1.183,0.871-2.488,1.666-3.469c3.059-3.774,6.298-7.404,9.334-11.196
		c0.347-0.434-0.163-1.554-0.276-2.356c-0.701,0.273-1.684,0.338-2.061,0.85c-6.516,8.829-15.724,13.329-26.004,15.774
		c-8.597,2.045-17.354,3.408-26.013,5.205c-8.426,1.749-16.616,4.141-23.645,9.45C161.867,187.639,158.107,193.331,159.103,201.528z
		"/>
	
		<linearGradient id="SVGID_16_" gradientUnits="userSpaceOnUse" x1="73.829" y1="563.9124" x2="323.433" y2="563.9124" gradientTransform="matrix(1 0 0 -1 0 770)">
		<stop  offset="0" style="stop-color:#944A00"/>
		<stop  offset="0" style="stop-color:#A05605"/>
		<stop  offset="0" style="stop-color:#C27712"/>
		<stop  offset="0" style="stop-color:#DD911D"/>
		<stop  offset="0" style="stop-color:#F0A324"/>
		<stop  offset="0" style="stop-color:#FBAE29"/>
		<stop  offset="0" style="stop-color:#FFB22A"/>
		<stop  offset="0.6854" style="stop-color:#FFB22A"/>
		<stop  offset="1" style="stop-color:#FF6315"/>
	</linearGradient>
	<path style="fill:url(#SVGID_16_);" d="M320.392,186.167c-4.758,2.546-9.351,5.487-14.31,7.551
		c-9.016,3.753-18.254,6.971-27.378,10.465c-0.581,0.222-0.987,0.9-1.474,1.367c0.808,0.243,1.656,0.786,2.418,0.685
		c9.75-1.298,19.214-3.726,28.207-7.75c5.012-2.242,9.907-4.744,15.578-7.478c-13.566,17.025-29.189,29.331-51.08,30.735
		c-5.283,0.339-10.707-1.416-16.052-2.295c-0.789-0.13-1.593-0.626-2.23-1.148c-7.439-6.104-16.132-7.808-25.436-7.18
		c-11.407,0.771-22.072,4.461-32.656,8.48c-10.456,3.971-20.81,8.213-32.079,9.614c-10.412,1.294-20.04-0.622-29.042-5.88
		c-12.913-7.543-26.496-13.256-41.65-13.719c-6.516-0.199-13.069,0.819-19.379,1.268c6.7-6.686,8.683-15.306,6.233-25.141
		c18.95,0.406,37.587,2.677,56.257,1.344c0.887,2.784,1.512,5.953,2.866,8.77c4.212,8.763,12.031,11.939,21.098,12.72
		c2.386,0.205,4.354,0.67,6.39,2.135c6.804,4.895,14.702,6.158,22.847,5.618c11.048-0.733,21.241-3.925,29.742-11.448
		c0.709-0.628,1.815-0.979,2.785-1.114c20.88-2.91,40.287-9.946,58.419-20.639c0.809-0.477,2.188-0.748,2.973-0.392
		c11.53,5.238,23.435,5.771,35.635,3.114c0.353-0.077,0.706-0.15,1.059-0.225C320.221,185.805,320.307,185.986,320.392,186.167z"/>
	
		<linearGradient id="SVGID_17_" gradientUnits="userSpaceOnUse" x1="65.27" y1="617.2426" x2="154.1048" y2="617.2426" gradientTransform="matrix(1 0 0 -1 0 770)">
		<stop  offset="0" style="stop-color:#944A00"/>
		<stop  offset="0" style="stop-color:#A05605"/>
		<stop  offset="0" style="stop-color:#C27712"/>
		<stop  offset="0" style="stop-color:#DD911D"/>
		<stop  offset="0" style="stop-color:#F0A324"/>
		<stop  offset="0" style="stop-color:#FBAE29"/>
		<stop  offset="0" style="stop-color:#FFB22A"/>
		<stop  offset="0.6854" style="stop-color:#FFB22A"/>
		<stop  offset="1" style="stop-color:#FF6315"/>
	</linearGradient>
	<path style="fill:url(#SVGID_17_);" d="M65.27,163.218c4.21-6.937,10.557-11.399,19.298-11.537
		c8.861-0.14,14.065,6.109,19.502,11.969c-0.081-6.048-3.813-9.848-8.052-13.537c2.405-5.715,6.844-9.212,12.679-10.459
		c5.956-1.272,12.06-2.118,18.14-2.483c10.397-0.624,19.495-3.833,26.754-11.534c0.103-0.109,0.334-0.096,0.508-0.14
		c0.205,8.7-4.997,24.873-10.273,31.951c-8.781-4.792-17.562-3.798-21.724,3.216c0.946-0.346,1.941-0.597,2.83-1.054
		c6.402-3.287,13.564-1.502,16.77,4.22c3.736,6.668-0.389,15.263-8.12,15.912c-6.251,0.525-12.6,0.193-18.888-0.111
		c-12.13-0.586-24.249-1.397-36.367-2.203c-0.872-0.058-1.932-0.634-2.503-1.309C72.324,171.973,68.938,167.728,65.27,163.218z"/>
	
		<linearGradient id="SVGID_18_" gradientUnits="userSpaceOnUse" x1="24.2209" y1="578.563" x2="73.6904" y2="578.563" gradientTransform="matrix(1 0 0 -1 0 770)">
		<stop  offset="0" style="stop-color:#944A00"/>
		<stop  offset="0" style="stop-color:#A05605"/>
		<stop  offset="0" style="stop-color:#C27712"/>
		<stop  offset="0" style="stop-color:#DD911D"/>
		<stop  offset="0" style="stop-color:#F0A324"/>
		<stop  offset="0" style="stop-color:#FBAE29"/>
		<stop  offset="0" style="stop-color:#FFB22A"/>
		<stop  offset="0.6854" style="stop-color:#FFB22A"/>
		<stop  offset="1" style="stop-color:#FF6315"/>
	</linearGradient>
	<path style="fill:url(#SVGID_18_);" d="M51.54,183.49c-0.167,0.876-0.359,1.389-0.348,1.898c0.114,5.239-2.055,9.261-6.877,11.288
		c-5.109,2.148-10.232,1.671-14.631-1.928c-9.032-7.39-6.403-22.912,4.488-28.054c12.707-6,23.865-1.166,32.212,8.464
		c4.408,5.085,7.101,10.971,7.299,17.927c0.165,5.817-2.43,10.204-6.559,13.761c-7.11,6.125-15.199,10.37-24.619,11.724
		c-7.844,1.127-14.215-1.617-16.98-7.632c-0.733-1.595-0.987-3.7-0.671-5.426c0.662-3.611,2.549-4.443,5.809-3.093
		c9.403,3.892,21.027-1.23,23.158-10.205C54.629,188.809,53.836,185.281,51.54,183.49z"/>
	
		<linearGradient id="SVGID_19_" gradientUnits="userSpaceOnUse" x1="258.263" y1="534.2557" x2="331.844" y2="534.2557" gradientTransform="matrix(1 0 0 -1 0 770)">
		<stop  offset="0" style="stop-color:#944A00"/>
		<stop  offset="0" style="stop-color:#A05605"/>
		<stop  offset="0" style="stop-color:#C27712"/>
		<stop  offset="0" style="stop-color:#DD911D"/>
		<stop  offset="0" style="stop-color:#F0A324"/>
		<stop  offset="0" style="stop-color:#FBAE29"/>
		<stop  offset="0" style="stop-color:#FFB22A"/>
		<stop  offset="0.6854" style="stop-color:#FFB22A"/>
		<stop  offset="1" style="stop-color:#FF6315"/>
	</linearGradient>
	<path style="fill:url(#SVGID_19_);" d="M258.263,245.904c2.742-5.162,3.137-7.435,2.732-15.657
		c1.666,0.172,3.302,0.399,4.945,0.502c10.361,0.645,19.883-2.369,29.144-6.625c1.292-0.594,2.863-0.9,4.283-0.84
		c9.855,0.422,19.315-1.192,28.363-5.145c1.091-0.477,2.172-0.975,3.257-1.464c0.14,0.251,0.28,0.503,0.42,0.754
		c-9.937,6.068-19.873,12.135-29.8,18.197c2.692,1.617,14.247-3.114,30.237-11.975c-2.378,3.016-4.654,6.12-7.154,9.032
		c-6.499,7.572-13.84,14.201-23.163,18.068c-13.631,5.655-27.092,5.875-39.986-2.332c-0.396-0.252-0.806-0.487-1.174-0.775
		C259.706,247.125,259.068,246.572,258.263,245.904z"/>
	
		<linearGradient id="SVGID_20_" gradientUnits="userSpaceOnUse" x1="203.9096" y1="511.1251" x2="240.278" y2="511.1251" gradientTransform="matrix(1 0 0 -1 0 770)">
		<stop  offset="0" style="stop-color:#944A00"/>
		<stop  offset="0" style="stop-color:#A05605"/>
		<stop  offset="0" style="stop-color:#C27712"/>
		<stop  offset="0" style="stop-color:#DD911D"/>
		<stop  offset="0" style="stop-color:#F0A324"/>
		<stop  offset="0" style="stop-color:#FBAE29"/>
		<stop  offset="0" style="stop-color:#FFB22A"/>
		<stop  offset="0.6854" style="stop-color:#FFB22A"/>
		<stop  offset="1" style="stop-color:#FF6315"/>
	</linearGradient>
	<path style="fill:url(#SVGID_20_);" d="M222.478,234.114c-2.444,7.176-1.247,12.783,3.671,17.549
		c0.463,0.448,0.862,1.299,0.794,1.907c-1.294,11.684,3.943,20.321,12.634,27.381c0.203,0.165,0.338,0.413,0.701,0.868
		c-8.213,1.743-16.276,3.238-24.066-0.532c-9.734-4.712-14.115-14.643-11.609-26.803c1.129-5.477,3.345-10.735,5.174-16.056
		c0.233-0.677,1.028-1.448,1.711-1.636C214.908,235.852,218.376,235.092,222.478,234.114z"/>
	
		<linearGradient id="SVGID_21_" gradientUnits="userSpaceOnUse" x1="230.565" y1="503.1722" x2="287.076" y2="503.1722" gradientTransform="matrix(1 0 0 -1 0 770)">
		<stop  offset="0" style="stop-color:#944A00"/>
		<stop  offset="0" style="stop-color:#A05605"/>
		<stop  offset="0" style="stop-color:#C27712"/>
		<stop  offset="0" style="stop-color:#DD911D"/>
		<stop  offset="0" style="stop-color:#F0A324"/>
		<stop  offset="0" style="stop-color:#FBAE29"/>
		<stop  offset="0" style="stop-color:#FFB22A"/>
		<stop  offset="0.6854" style="stop-color:#FFB22A"/>
		<stop  offset="1" style="stop-color:#FF6315"/>
	</linearGradient>
	<path style="fill:url(#SVGID_21_);" d="M230.565,254.831c11.484,2.236,13.089,2.034,22.254-2.946
		c2.913,3.174,5.794,6.592,8.965,9.715c7.558,7.444,11.535,9.821,25.292,15.554c-4.852,1.364-8.904,2.81-13.079,3.62
		c-12.973,2.514-24.892,0.537-34.805-8.983C234.609,267.389,231.659,261.623,230.565,254.831z"/>
	
		<linearGradient id="SVGID_22_" gradientUnits="userSpaceOnUse" x1="203.303" y1="536.6689" x2="253.8473" y2="536.6689" gradientTransform="matrix(1 0 0 -1 0 770)">
		<stop  offset="0" style="stop-color:#944A00"/>
		<stop  offset="0" style="stop-color:#A05605"/>
		<stop  offset="0" style="stop-color:#C27712"/>
		<stop  offset="0" style="stop-color:#DD911D"/>
		<stop  offset="0" style="stop-color:#F0A324"/>
		<stop  offset="0" style="stop-color:#FBAE29"/>
		<stop  offset="0" style="stop-color:#FFB22A"/>
		<stop  offset="0.6854" style="stop-color:#FFB22A"/>
		<stop  offset="1" style="stop-color:#FF6315"/>
	</linearGradient>
	<path style="fill:url(#SVGID_22_);" d="M207.171,229.808c-1.233-2.076-2.469-4.155-3.868-6.51c7.604-2.67,15.307-5.24,23.568-5.603
		c6.481-0.284,12.783,0.32,18.626,3.51c6.867,3.749,10.04,11.775,7.455,19.069c-3.095,8.734-15.847,11.829-21.852,5.136
		c-1.319-1.47-2.189-3.82-2.277-5.809c-0.153-3.441,2.595-5.457,5.964-4.705c2.466,0.55,4.82,1.581,7.264,2.256
		c0.772,0.213,1.67-0.03,2.511-0.064c-0.298-0.858-0.341-2.002-0.934-2.531c-6.68-5.955-14.674-7.831-23.358-6.934
		C215.901,228.075,211.586,229.054,207.171,229.808z"/>
	
		<linearGradient id="SVGID_23_" gradientUnits="userSpaceOnUse" x1="166.9604" y1="580.0431" x2="227.335" y2="580.0431" gradientTransform="matrix(1 0 0 -1 0 770)">
		<stop  offset="0" style="stop-color:#944A00"/>
		<stop  offset="0" style="stop-color:#A05605"/>
		<stop  offset="0" style="stop-color:#C27712"/>
		<stop  offset="0" style="stop-color:#DD911D"/>
		<stop  offset="0" style="stop-color:#F0A324"/>
		<stop  offset="0" style="stop-color:#FBAE29"/>
		<stop  offset="0" style="stop-color:#FFB22A"/>
		<stop  offset="0.6854" style="stop-color:#FFB22A"/>
		<stop  offset="1" style="stop-color:#FF6315"/>
	</linearGradient>
	<path style="fill:url(#SVGID_23_);" d="M174.758,186.666c0.443,8.899,4.708,14.432,12.181,17.386
		c7.349,2.905,14.26,1.857,20.068-3.863c5.943-5.853,7.555-14.693,4.261-23.562c2.654-0.809,5.318-1.559,7.94-2.436
		c2.652-0.887,5.263-1.898,8.127-2.939c-0.521,10.505-4.452,19.302-11.83,26.463c-11.02,10.695-24.194,13.037-38.678,9.257
		c-2.379-0.621-4.672-2.035-6.678-3.523c-3.46-2.567-4.203-6.474-1.742-9.974C170.175,190.959,172.617,188.919,174.758,186.666z"/>
	
		<linearGradient id="SVGID_24_" gradientUnits="userSpaceOnUse" x1="96.082" y1="518.2185" x2="121.322" y2="518.2185" gradientTransform="matrix(1 0 0 -1 0 770)">
		<stop  offset="0" style="stop-color:#944A00"/>
		<stop  offset="0" style="stop-color:#A05605"/>
		<stop  offset="0" style="stop-color:#C27712"/>
		<stop  offset="0" style="stop-color:#DD911D"/>
		<stop  offset="0" style="stop-color:#F0A324"/>
		<stop  offset="0" style="stop-color:#FBAE29"/>
		<stop  offset="0" style="stop-color:#FFB22A"/>
		<stop  offset="0.6854" style="stop-color:#FFB22A"/>
		<stop  offset="1" style="stop-color:#FF6315"/>
	</linearGradient>
	<path style="fill:url(#SVGID_24_);" d="M121.322,241.307c-3.853,9.418-7.421,18.139-10.958,26.782
		c-7.673-8.945-10.666-20.558-14.282-32.615C104.617,237.447,113.152,239.419,121.322,241.307z"/>
	
		<linearGradient id="SVGID_25_" gradientUnits="userSpaceOnUse" x1="68.374" y1="547.7342" x2="102.4918" y2="547.7342" gradientTransform="matrix(1 0 0 -1 0 770)">
		<stop  offset="0" style="stop-color:#944A00"/>
		<stop  offset="0" style="stop-color:#A05605"/>
		<stop  offset="0" style="stop-color:#C27712"/>
		<stop  offset="0" style="stop-color:#DD911D"/>
		<stop  offset="0" style="stop-color:#F0A324"/>
		<stop  offset="0" style="stop-color:#FBAE29"/>
		<stop  offset="0" style="stop-color:#FFB22A"/>
		<stop  offset="0.6854" style="stop-color:#FFB22A"/>
		<stop  offset="1" style="stop-color:#FF6315"/>
	</linearGradient>
	<path style="fill:url(#SVGID_25_);" d="M73.72,229.562c0.514-4.998-0.962-8.928-5.346-11.941
		c10.357-2.407,20.268-3.422,30.339-2.18c0.61,0.075,1.355,0.679,1.671,1.242c1.953,3.482,2.689,7.168,1.609,11.122
		c-0.375,1.372-0.99,1.84-2.552,1.817C91.015,229.497,82.587,229.562,73.72,229.562z"/>
	
		<linearGradient id="SVGID_26_" gradientUnits="userSpaceOnUse" x1="27.0613" y1="538.7297" x2="58.4591" y2="538.7297" gradientTransform="matrix(1 0 0 -1 0 770)">
		<stop  offset="0" style="stop-color:#944A00"/>
		<stop  offset="0" style="stop-color:#A05605"/>
		<stop  offset="0" style="stop-color:#C27712"/>
		<stop  offset="0" style="stop-color:#DD911D"/>
		<stop  offset="0" style="stop-color:#F0A324"/>
		<stop  offset="0" style="stop-color:#FBAE29"/>
		<stop  offset="0" style="stop-color:#FFB22A"/>
		<stop  offset="0.6854" style="stop-color:#FFB22A"/>
		<stop  offset="1" style="stop-color:#FF6315"/>
	</linearGradient>
	<path style="fill:url(#SVGID_26_);" d="M38.612,239.099c-5.306,0.031-8.536-2.052-10.703-5.867
		c-1.046-1.841-1.254-3.726,0.121-5.546c1.321-1.749,2.811-2.195,5.103-1.618c6.835,1.721,13.453,0.096,19.851-2.249
		c2.117-0.776,3.166-0.395,3.937,1.5c0.458,1.125,1.005,2.241,1.261,3.416c0.772,3.531,0.017,4.709-3.358,5.796
		c-3.924,1.264-7.807,2.662-11.757,3.836C41.377,238.87,39.561,238.952,38.612,239.099z"/>
	
		<linearGradient id="SVGID_27_" gradientUnits="userSpaceOnUse" x1="117.351" y1="538.261" x2="148.0611" y2="538.261" gradientTransform="matrix(1 0 0 -1 0 770)">
		<stop  offset="0" style="stop-color:#944A00"/>
		<stop  offset="0" style="stop-color:#A05605"/>
		<stop  offset="0" style="stop-color:#C27712"/>
		<stop  offset="0" style="stop-color:#DD911D"/>
		<stop  offset="0" style="stop-color:#F0A324"/>
		<stop  offset="0" style="stop-color:#FBAE29"/>
		<stop  offset="0" style="stop-color:#FFB22A"/>
		<stop  offset="0.6854" style="stop-color:#FFB22A"/>
		<stop  offset="1" style="stop-color:#FF6315"/>
	</linearGradient>
	<path style="fill:url(#SVGID_27_);" d="M117.351,219.86c5.735,3.214,11.303,6.507,17.035,9.482
		c3.399,1.764,6.97,3.322,10.632,4.407c2.261,0.67,3.144,1.704,3.034,3.843c-0.093,1.826-0.283,3.647-0.474,6.026
		c-10.532-3.636-20.515-7.082-30.227-10.435C117.351,228.925,117.351,224.71,117.351,219.86z"/>
	
		<linearGradient id="SVGID_28_" gradientUnits="userSpaceOnUse" x1="133.324" y1="507.9465" x2="152.524" y2="507.9465" gradientTransform="matrix(1 0 0 -1 0 770)">
		<stop  offset="0" style="stop-color:#944A00"/>
		<stop  offset="0" style="stop-color:#A05605"/>
		<stop  offset="0" style="stop-color:#C27712"/>
		<stop  offset="0" style="stop-color:#DD911D"/>
		<stop  offset="0" style="stop-color:#F0A324"/>
		<stop  offset="0" style="stop-color:#FBAE29"/>
		<stop  offset="0" style="stop-color:#FFB22A"/>
		<stop  offset="0.6854" style="stop-color:#FFB22A"/>
		<stop  offset="1" style="stop-color:#FF6315"/>
	</linearGradient>
	<path style="fill:url(#SVGID_28_);" d="M144.45,277.172c-6.816-8.752-9.53-19.333-11.126-30.237
		c6.617,1.943,13.151,3.863,19.2,5.639C149.901,260.566,147.169,268.891,144.45,277.172z"/>
	
		<linearGradient id="SVGID_29_" gradientUnits="userSpaceOnUse" x1="63.802" y1="519.9515" x2="82.919" y2="519.9515" gradientTransform="matrix(1 0 0 -1 0 770)">
		<stop  offset="0" style="stop-color:#944A00"/>
		<stop  offset="0" style="stop-color:#A05605"/>
		<stop  offset="0" style="stop-color:#C27712"/>
		<stop  offset="0" style="stop-color:#DD911D"/>
		<stop  offset="0" style="stop-color:#F0A324"/>
		<stop  offset="0" style="stop-color:#FBAE29"/>
		<stop  offset="0" style="stop-color:#FFB22A"/>
		<stop  offset="0.6854" style="stop-color:#FFB22A"/>
		<stop  offset="1" style="stop-color:#FF6315"/>
	</linearGradient>
	<path style="fill:url(#SVGID_29_);" d="M64.479,238.235c6.265-0.944,12.53-1.888,18.44-2.778
		c-1.059,9.676-2.077,18.969-3.195,29.183c-5.491-8.789-10.706-17.136-15.922-25.484C64.027,238.849,64.253,238.542,64.479,238.235z
		"/>
	
		<linearGradient id="SVGID_30_" gradientUnits="userSpaceOnUse" x1="162.859" y1="533.308" x2="194.073" y2="533.308" gradientTransform="matrix(1 0 0 -1 0 770)">
		<stop  offset="0" style="stop-color:#944A00"/>
		<stop  offset="0" style="stop-color:#A05605"/>
		<stop  offset="0" style="stop-color:#C27712"/>
		<stop  offset="0" style="stop-color:#DD911D"/>
		<stop  offset="0" style="stop-color:#F0A324"/>
		<stop  offset="0" style="stop-color:#FBAE29"/>
		<stop  offset="0" style="stop-color:#FFB22A"/>
		<stop  offset="0.6854" style="stop-color:#FFB22A"/>
		<stop  offset="1" style="stop-color:#FF6315"/>
	</linearGradient>
	<path style="fill:url(#SVGID_30_);" d="M191.834,228.383c0.641,1.926,1.399,4.206,2.239,6.733
		c-9.725,4.156-19.099,8.626-29.358,9.885c-0.698-3.423-1.323-6.488-1.856-9.1C172.056,233.515,181.696,231.014,191.834,228.383z"/>
	
		<linearGradient id="SVGID_31_" gradientUnits="userSpaceOnUse" x1="179.5479" y1="581.155" x2="207.3015" y2="581.155" gradientTransform="matrix(1 0 0 -1 0 770)">
		<stop  offset="0" style="stop-color:#944A00"/>
		<stop  offset="0" style="stop-color:#A05605"/>
		<stop  offset="0" style="stop-color:#C27712"/>
		<stop  offset="0" style="stop-color:#DD911D"/>
		<stop  offset="0" style="stop-color:#F0A324"/>
		<stop  offset="0" style="stop-color:#FBAE29"/>
		<stop  offset="0" style="stop-color:#FFB22A"/>
		<stop  offset="0.6854" style="stop-color:#FFB22A"/>
		<stop  offset="1" style="stop-color:#FF6315"/>
	</linearGradient>
	<path style="fill:url(#SVGID_31_);" d="M205.679,177.497c2.003,6.014,2.738,11.676-1.28,16.694
		c-7.325,9.151-18.479,7.609-23.236-3.064c-0.305-0.685-0.585-1.386-0.807-2.101c-1.429-4.601-1.362-4.711,3.532-6.153
		c-0.068,4.583,1.676,8.136,6.172,9.66c3.707,1.257,7.107,0.305,9.812-2.529c3.231-3.384,3.146-7.217,0.872-11.51
		C202.461,178.148,203.961,177.844,205.679,177.497z"/>
	
		<linearGradient id="SVGID_32_" gradientUnits="userSpaceOnUse" x1="169.426" y1="509.673" x2="187.135" y2="509.673" gradientTransform="matrix(1 0 0 -1 0 770)">
		<stop  offset="0" style="stop-color:#944A00"/>
		<stop  offset="0" style="stop-color:#A05605"/>
		<stop  offset="0" style="stop-color:#C27712"/>
		<stop  offset="0" style="stop-color:#DD911D"/>
		<stop  offset="0" style="stop-color:#F0A324"/>
		<stop  offset="0" style="stop-color:#FBAE29"/>
		<stop  offset="0" style="stop-color:#FFB22A"/>
		<stop  offset="0.6854" style="stop-color:#FFB22A"/>
		<stop  offset="1" style="stop-color:#FF6315"/>
	</linearGradient>
	<path style="fill:url(#SVGID_32_);" d="M181.355,274.212c-5.815-6.18-8.583-14.315-11.929-21.916
		c6.129-2.026,12.147-4.015,17.709-5.854C185.25,255.497,183.296,264.885,181.355,274.212z"/>
	
		<linearGradient id="SVGID_33_" gradientUnits="userSpaceOnUse" x1="35.99" y1="514.499" x2="52.215" y2="514.499" gradientTransform="matrix(1 0 0 -1 0 770)">
		<stop  offset="0" style="stop-color:#944A00"/>
		<stop  offset="0" style="stop-color:#A05605"/>
		<stop  offset="0" style="stop-color:#C27712"/>
		<stop  offset="0" style="stop-color:#DD911D"/>
		<stop  offset="0" style="stop-color:#F0A324"/>
		<stop  offset="0" style="stop-color:#FBAE29"/>
		<stop  offset="0" style="stop-color:#FFB22A"/>
		<stop  offset="0.6854" style="stop-color:#FFB22A"/>
		<stop  offset="1" style="stop-color:#FF6315"/>
	</linearGradient>
	<path style="fill:url(#SVGID_33_);" d="M50.313,267.814c-6.203-6.591-10.697-14.163-14.323-21.799
		c5.521-0.962,10.993-1.915,16.225-2.827c-0.585,3.674-1.5,7.784-1.83,11.94C50.056,259.277,50.313,263.473,50.313,267.814z"/>
	
		<linearGradient id="SVGID_34_" gradientUnits="userSpaceOnUse" x1="59.332" y1="544.9562" x2="69.8685" y2="544.9562" gradientTransform="matrix(1 0 0 -1 0 770)">
		<stop  offset="0" style="stop-color:#944A00"/>
		<stop  offset="0" style="stop-color:#A05605"/>
		<stop  offset="0" style="stop-color:#C27712"/>
		<stop  offset="0" style="stop-color:#DD911D"/>
		<stop  offset="0" style="stop-color:#F0A324"/>
		<stop  offset="0" style="stop-color:#FBAE29"/>
		<stop  offset="0" style="stop-color:#FFB22A"/>
		<stop  offset="0.6854" style="stop-color:#FFB22A"/>
		<stop  offset="1" style="stop-color:#FF6315"/>
	</linearGradient>
	<path style="fill:url(#SVGID_34_);" d="M59.332,221.138c2.277,0.014,3.858-4.155,6.615-2.053c2.904,2.213,4.561,5.466,3.689,9.474
		c-0.796,3.658-4.177,1.955-5.812,3.036C62.345,228.153,60.899,224.787,59.332,221.138z"/>
	
		<linearGradient id="SVGID_35_" gradientUnits="userSpaceOnUse" x1="104.206" y1="545.9755" x2="113.0234" y2="545.9755" gradientTransform="matrix(1 0 0 -1 0 770)">
		<stop  offset="0" style="stop-color:#944A00"/>
		<stop  offset="0" style="stop-color:#A05605"/>
		<stop  offset="0" style="stop-color:#C27712"/>
		<stop  offset="0" style="stop-color:#DD911D"/>
		<stop  offset="0" style="stop-color:#F0A324"/>
		<stop  offset="0" style="stop-color:#FBAE29"/>
		<stop  offset="0" style="stop-color:#FFB22A"/>
		<stop  offset="0.6854" style="stop-color:#FFB22A"/>
		<stop  offset="1" style="stop-color:#FF6315"/>
	</linearGradient>
	<path style="fill:url(#SVGID_35_);" d="M111.546,231.743c-1.951-0.393-3.662-0.737-5.515-1.11c1.263-4.954,1.068-9.53-1.825-14.327
		c2.578,0.598,4.731,0.973,6.784,1.65c0.601,0.198,1.123,1.195,1.334,1.926C113.458,223.801,113.223,227.668,111.546,231.743z"/>
	
		<linearGradient id="SVGID_36_" gradientUnits="userSpaceOnUse" x1="187.4228" y1="585.6767" x2="197.9352" y2="585.6767" gradientTransform="matrix(1 0 0 -1 0 770)">
		<stop  offset="0" style="stop-color:#944A00"/>
		<stop  offset="0" style="stop-color:#A05605"/>
		<stop  offset="0" style="stop-color:#C27712"/>
		<stop  offset="0" style="stop-color:#DD911D"/>
		<stop  offset="0" style="stop-color:#F0A324"/>
		<stop  offset="0" style="stop-color:#FBAE29"/>
		<stop  offset="0" style="stop-color:#FFB22A"/>
		<stop  offset="0.6854" style="stop-color:#FFB22A"/>
		<stop  offset="1" style="stop-color:#FF6315"/>
	</linearGradient>
	<path style="fill:url(#SVGID_36_);" d="M192.861,188.771c-3.107,0.085-5.926-3.185-5.367-6.225c0.034-0.183,0.021-0.507,0.099-0.53
		c2.709-0.795,5.427-2.147,8.141-2.142c2.039,0.004,2.35,2.587,2.149,4.536C197.629,186.885,195.468,188.7,192.861,188.771z"/>
	
		<linearGradient id="SVGID_37_" gradientUnits="userSpaceOnUse" x1="152.042" y1="529.757" x2="159.632" y2="529.757" gradientTransform="matrix(1 0 0 -1 0 770)">
		<stop  offset="0" style="stop-color:#944A00"/>
		<stop  offset="0" style="stop-color:#A05605"/>
		<stop  offset="0" style="stop-color:#C27712"/>
		<stop  offset="0" style="stop-color:#DD911D"/>
		<stop  offset="0" style="stop-color:#F0A324"/>
		<stop  offset="0" style="stop-color:#FBAE29"/>
		<stop  offset="0" style="stop-color:#FFB22A"/>
		<stop  offset="0.6854" style="stop-color:#FFB22A"/>
		<stop  offset="1" style="stop-color:#FF6315"/>
	</linearGradient>
	<path style="fill:url(#SVGID_37_);" d="M152.675,244.635c-0.224-3.291-0.425-6.245-0.633-9.312c1.68,0,3.436-0.057,5.184,0.041
		c0.429,0.024,1.119,0.489,1.198,0.857c0.486,2.268,0.944,4.555,1.187,6.859c0.174,1.653-0.741,2.335-2.456,2.028
		C155.696,244.847,154.202,244.788,152.675,244.635z"/>
	
		<linearGradient id="SVGID_38_" gradientUnits="userSpaceOnUse" x1="194.289" y1="541.1145" x2="202.6889" y2="541.1145" gradientTransform="matrix(1 0 0 -1 0 770)">
		<stop  offset="0" style="stop-color:#944A00"/>
		<stop  offset="0" style="stop-color:#A05605"/>
		<stop  offset="0" style="stop-color:#C27712"/>
		<stop  offset="0" style="stop-color:#DD911D"/>
		<stop  offset="0" style="stop-color:#F0A324"/>
		<stop  offset="0" style="stop-color:#FBAE29"/>
		<stop  offset="0" style="stop-color:#FFB22A"/>
		<stop  offset="0.6854" style="stop-color:#FFB22A"/>
		<stop  offset="1" style="stop-color:#FF6315"/>
	</linearGradient>
	<path style="fill:url(#SVGID_38_);" d="M194.289,226.731c1.852-0.738,3.646-1.453,5.388-2.148c4.36,5.329,4.064,7.031-1.396,8.605
		C197.022,231.15,195.754,229.1,194.289,226.731z"/>
</g>
<linearGradient id="SVGID_39_" gradientUnits="userSpaceOnUse" x1="594.407" y1="565.7783" x2="638.5077" y2="565.7783" gradientTransform="matrix(1 0 0 -1 0 770)">
	<stop  offset="0" style="stop-color:#944A00"/>
	<stop  offset="0.0249" style="stop-color:#A05605"/>
	<stop  offset="0.1045" style="stop-color:#C27712"/>
	<stop  offset="0.1857" style="stop-color:#DD911D"/>
	<stop  offset="0.2683" style="stop-color:#F0A324"/>
	<stop  offset="0.3532" style="stop-color:#FBAE29"/>
	<stop  offset="0.4435" style="stop-color:#FFB22A"/>
	<stop  offset="1" style="stop-color:#FF6315"/>
</linearGradient>
<path style="fill:url(#SVGID_39_);" d="M594.407,222.416c17.037-13.597,4.009-32.071,0-36.08
	c16.371-2.612,31.83,11.989,44.098,20.044c0.006,1.169,0,0,0,2.166C624.216,209.627,610.929,221.165,594.407,222.416z"/>
</svg>
